<svg xmlns="http://www.w3.org/2000/svg" xmlns:xlink="http://www.w3.org/1999/xlink" width="1920" zoomAndPan="magnify" viewBox="0 0 1440 809.999993" height="1080" preserveAspectRatio="xMidYMid meet" version="1.0"><defs><filter x="0%" y="0%" width="100%" height="100%" id="87e27f6c0a"><feColorMatrix values="0 0 0 0 1 0 0 0 0 1 0 0 0 0 1 0 0 0 1 0" color-interpolation-filters="sRGB"/></filter><mask id="d706c686a9"><g filter="url(#87e27f6c0a)"><rect x="-144" width="1728" fill="#000000" y="-80.999999" height="971.999992" fill-opacity="0.5"/></g></mask><clipPath id="3ca5ada31f"><path d="M 0 0 L 212 0 L 212 278 L 0 278 Z M 0 0 " clip-rule="nonzero"/></clipPath><clipPath id="ba4d1f171d"><path d="M 38.898438 -35.386719 L 218.15625 32.496094 L 123.097656 283.503906 L -56.160156 215.621094 Z M 38.898438 -35.386719 " clip-rule="nonzero"/></clipPath><clipPath id="b02b490357"><path d="M 59.238281 -27.683594 L 197.816406 24.792969 C 209.046875 29.046875 214.707031 41.605469 210.453125 52.835938 L 130.800781 263.164062 C 126.546875 274.398438 113.992188 280.058594 102.757812 275.804688 L -35.820312 223.324219 C -47.054688 219.070312 -52.710938 206.515625 -48.457031 195.28125 L 31.195312 -15.046875 C 35.449219 -26.28125 48.003906 -31.9375 59.238281 -27.683594 Z M 59.238281 -27.683594 " clip-rule="nonzero"/></clipPath><clipPath id="fc823987f4"><rect x="0" width="219" y="0" height="284"/></clipPath><mask id="505ce6f902"><g filter="url(#87e27f6c0a)"><rect x="-144" width="1728" fill="#000000" y="-80.999999" height="971.999992" fill-opacity="0.5"/></g></mask><clipPath id="16e282d0a1"><path d="M 0 7 L 109 7 L 109 314 L 0 314 Z M 0 7 " clip-rule="nonzero"/></clipPath><clipPath id="9cb4fdcfa0"><path d="M -64.28125 1.007812 L 114.976562 68.890625 L 19.921875 319.902344 L -159.335938 252.015625 Z M -64.28125 1.007812 " clip-rule="nonzero"/></clipPath><clipPath id="315c0d360b"><path d="M -43.941406 8.710938 L 94.636719 61.1875 C 105.871094 65.441406 111.527344 78 107.273438 89.230469 L 27.625 299.558594 C 23.371094 310.792969 10.8125 316.453125 -0.417969 312.199219 L -138.996094 259.71875 C -150.230469 255.464844 -155.890625 242.910156 -151.636719 231.675781 L -71.984375 21.347656 C -67.730469 10.113281 -55.175781 4.457031 -43.941406 8.710938 Z M -43.941406 8.710938 " clip-rule="nonzero"/></clipPath><clipPath id="01d2b56a37"><rect x="0" width="116" y="0" height="321"/></clipPath><mask id="49aee02697"><g filter="url(#87e27f6c0a)"><rect x="-144" width="1728" fill="#000000" y="-80.999999" height="971.999992" fill-opacity="0.5"/></g></mask><clipPath id="2b581682bb"><path d="M 7 0 L 269 0 L 269 226 L 7 226 Z M 7 0 " clip-rule="nonzero"/></clipPath><clipPath id="7ca3b84ec9"><path d="M 96 -86.886719 L 275.257812 -19 L 180.203125 232.007812 L 0.945312 164.121094 Z M 96 -86.886719 " clip-rule="nonzero"/></clipPath><clipPath id="df560b1f55"><path d="M 116.339844 -79.183594 L 254.917969 -26.703125 C 266.152344 -22.449219 271.8125 -9.894531 267.558594 1.339844 L 187.90625 211.667969 C 183.652344 222.902344 171.097656 228.558594 159.863281 224.304688 L 21.285156 171.824219 C 10.050781 167.570312 4.394531 155.015625 8.648438 143.78125 L 88.296875 -66.546875 C 92.550781 -77.78125 105.109375 -83.4375 116.339844 -79.183594 Z M 116.339844 -79.183594 " clip-rule="nonzero"/></clipPath><clipPath id="f8705b2045"><rect x="0" width="276" y="0" height="233"/></clipPath><mask id="3a7d6210c5"><g filter="url(#87e27f6c0a)"><rect x="-144" width="1728" fill="#000000" y="-80.999999" height="971.999992" fill-opacity="0.5"/></g></mask><clipPath id="9ab49a95b7"><path d="M 6 6 L 269 6 L 269 314 L 6 314 Z M 6 6 " clip-rule="nonzero"/></clipPath><clipPath id="069a2fc57b"><path d="M 95.570312 0.507812 L 274.828125 68.394531 L 179.773438 319.402344 L 0.515625 251.515625 Z M 95.570312 0.507812 " clip-rule="nonzero"/></clipPath><clipPath id="750b50cebb"><path d="M 115.910156 8.210938 L 254.488281 60.691406 C 265.722656 64.945312 271.378906 77.5 267.125 88.734375 L 187.476562 299.0625 C 183.222656 310.296875 170.667969 315.953125 159.433594 311.699219 L 20.855469 259.21875 C 9.621094 254.964844 3.964844 242.410156 8.21875 231.175781 L 87.867188 20.847656 C 92.121094 9.617188 104.675781 3.957031 115.910156 8.210938 Z M 115.910156 8.210938 " clip-rule="nonzero"/></clipPath><clipPath id="8b463a0ea7"><rect x="0" width="275" y="0" height="320"/></clipPath><mask id="a3deba64cf"><g filter="url(#87e27f6c0a)"><rect x="-144" width="1728" fill="#000000" y="-80.999999" height="971.999992" fill-opacity="0.5"/></g></mask><clipPath id="da6f675f4c"><path d="M 0 6 L 254 6 L 254 313 L 0 313 Z M 0 6 " clip-rule="nonzero"/></clipPath><clipPath id="c53d42118a"><path d="M 80.636719 0.15625 L 259.894531 68.039062 L 164.839844 319.050781 L -14.417969 251.164062 Z M 80.636719 0.15625 " clip-rule="nonzero"/></clipPath><clipPath id="afac36dc59"><path d="M 100.976562 7.859375 L 239.554688 60.335938 C 250.789062 64.589844 256.445312 77.148438 252.191406 88.378906 L 172.542969 298.707031 C 168.289062 309.941406 155.734375 315.601562 144.5 311.347656 L 5.921875 258.867188 C -5.3125 254.613281 -10.96875 242.058594 -6.714844 230.824219 L 72.933594 20.496094 C 77.1875 9.261719 89.742188 3.605469 100.976562 7.859375 Z M 100.976562 7.859375 " clip-rule="nonzero"/></clipPath><clipPath id="3da41df872"><rect x="0" width="260" y="0" height="320"/></clipPath><mask id="dcc0e311f8"><g filter="url(#87e27f6c0a)"><rect x="-144" width="1728" fill="#000000" y="-80.999999" height="971.999992" fill-opacity="0.5"/></g></mask><clipPath id="10a3ed7de4"><path d="M 0 7 L 151 7 L 151 93 L 0 93 Z M 0 7 " clip-rule="nonzero"/></clipPath><clipPath id="7973bb0184"><path d="M -22.542969 0.800781 L 156.71875 68.6875 L 61.660156 319.695312 L -117.597656 251.8125 Z M -22.542969 0.800781 " clip-rule="nonzero"/></clipPath><clipPath id="dd3d9c7bc9"><path d="M -2.199219 8.503906 L 136.378906 60.984375 C 147.609375 65.238281 153.269531 77.792969 149.015625 89.027344 L 69.363281 299.355469 C 65.109375 310.589844 52.554688 316.246094 41.320312 311.992188 L -97.257812 259.515625 C -108.492188 255.261719 -114.148438 242.703125 -109.894531 231.472656 L -30.242188 21.144531 C -25.988281 9.910156 -13.433594 4.25 -2.199219 8.503906 Z M -2.199219 8.503906 " clip-rule="nonzero"/></clipPath><clipPath id="8df72c036d"><rect x="0" width="157" y="0" height="93"/></clipPath><mask id="8af29a95f7"><g filter="url(#87e27f6c0a)"><rect x="-144" width="1728" fill="#000000" y="-80.999999" height="971.999992" fill-opacity="0.5"/></g></mask><clipPath id="f3b19d12a9"><path d="M 6 0 L 269 0 L 269 208 L 6 208 Z M 6 0 " clip-rule="nonzero"/></clipPath><clipPath id="352db31777"><path d="M 95.335938 -105.289062 L 274.59375 -37.40625 L 179.539062 213.601562 L 0.28125 145.71875 Z M 95.335938 -105.289062 " clip-rule="nonzero"/></clipPath><clipPath id="4cf51bf330"><path d="M 115.675781 -97.589844 L 254.253906 -45.109375 C 265.488281 -40.855469 271.144531 -28.300781 266.890625 -17.066406 L 187.242188 193.261719 C 182.988281 204.496094 170.433594 210.152344 159.199219 205.898438 L 20.621094 153.421875 C 9.386719 149.167969 3.730469 136.609375 7.984375 125.378906 L 87.632812 -84.949219 C 91.886719 -96.183594 104.441406 -101.84375 115.675781 -97.589844 Z M 115.675781 -97.589844 " clip-rule="nonzero"/></clipPath><clipPath id="58ff224bfc"><rect x="0" width="275" y="0" height="214"/></clipPath><mask id="150a8e9aa5"><g filter="url(#87e27f6c0a)"><rect x="-144" width="1728" fill="#000000" y="-80.999999" height="971.999992" fill-opacity="0.5"/></g></mask><clipPath id="078a894fce"><path d="M 6 6 L 269 6 L 269 313 L 6 313 Z M 6 6 " clip-rule="nonzero"/></clipPath><clipPath id="4ae67eca2e"><path d="M 95.160156 0.105469 L 274.417969 67.988281 L 179.359375 318.996094 L 0.101562 251.113281 Z M 95.160156 0.105469 " clip-rule="nonzero"/></clipPath><clipPath id="1dcda9c5d0"><path d="M 115.5 7.808594 L 254.078125 60.285156 C 265.308594 64.539062 270.96875 77.09375 266.714844 88.328125 L 187.0625 298.65625 C 182.808594 309.890625 170.253906 315.546875 159.019531 311.292969 L 20.441406 258.816406 C 9.207031 254.5625 3.550781 242.007812 7.804688 230.773438 L 87.457031 20.445312 C 91.710938 9.210938 104.265625 3.550781 115.5 7.808594 Z M 115.5 7.808594 " clip-rule="nonzero"/></clipPath><clipPath id="810e232f5e"><rect x="0" width="275" y="0" height="320"/></clipPath><mask id="7a398fed06"><g filter="url(#87e27f6c0a)"><rect x="-144" width="1728" fill="#000000" y="-80.999999" height="971.999992" fill-opacity="0.5"/></g></mask><clipPath id="877153976f"><path d="M 6 0 L 269 0 L 269 156 L 6 156 Z M 6 0 " clip-rule="nonzero"/></clipPath><clipPath id="01964e7356"><path d="M 95.441406 -156.789062 L 274.699219 -88.90625 L 179.644531 162.105469 L 0.382812 94.21875 Z M 95.441406 -156.789062 " clip-rule="nonzero"/></clipPath><clipPath id="53271cc980"><path d="M 115.78125 -149.085938 L 254.359375 -96.609375 C 265.59375 -92.351562 271.25 -79.796875 266.996094 -68.5625 L 187.347656 141.761719 C 183.09375 152.996094 170.535156 158.65625 159.304688 154.402344 L 20.726562 101.921875 C 9.492188 97.667969 3.832031 85.113281 8.085938 73.878906 L 87.738281 -136.449219 C 91.992188 -147.683594 104.546875 -153.339844 115.78125 -149.085938 Z M 115.78125 -149.085938 " clip-rule="nonzero"/></clipPath><clipPath id="3d265f4aef"><rect x="0" width="275" y="0" height="163"/></clipPath><mask id="ea05228761"><g filter="url(#87e27f6c0a)"><rect x="-144" width="1728" fill="#000000" y="-80.999999" height="971.999992" fill-opacity="0.5"/></g></mask><clipPath id="c425220362"><path d="M 7 6 L 269 6 L 269 314 L 7 314 Z M 7 6 " clip-rule="nonzero"/></clipPath><clipPath id="e8edd76d47"><path d="M 96.011719 0.605469 L 275.269531 68.488281 L 180.214844 319.5 L 0.953125 251.613281 Z M 96.011719 0.605469 " clip-rule="nonzero"/></clipPath><clipPath id="1102ca07f3"><path d="M 116.351562 8.308594 L 254.929688 60.789062 C 266.164062 65.042969 271.820312 77.597656 267.566406 88.832031 L 187.914062 299.160156 C 183.660156 310.390625 171.105469 316.050781 159.871094 311.796875 L 21.292969 259.316406 C 10.0625 255.0625 4.402344 242.507812 8.65625 231.273438 L 88.308594 20.945312 C 92.5625 9.710938 105.117188 4.054688 116.351562 8.308594 Z M 116.351562 8.308594 " clip-rule="nonzero"/></clipPath><clipPath id="7ed40e08d3"><rect x="0" width="276" y="0" height="320"/></clipPath><mask id="c4045c258f"><g filter="url(#87e27f6c0a)"><rect x="-144" width="1728" fill="#000000" y="-80.999999" height="971.999992" fill-opacity="0.5"/></g></mask><clipPath id="a2d27121aa"><path d="M 7 6 L 270 6 L 270 313 L 7 313 Z M 7 6 " clip-rule="nonzero"/></clipPath><clipPath id="c54959c59a"><path d="M 96.078125 0.253906 L 275.335938 68.136719 L 180.28125 319.144531 L 1.019531 251.261719 Z M 96.078125 0.253906 " clip-rule="nonzero"/></clipPath><clipPath id="4393c8e30b"><path d="M 116.417969 7.957031 L 254.996094 60.433594 C 266.230469 64.6875 271.886719 77.242188 267.632812 88.476562 L 187.980469 298.804688 C 183.726562 310.039062 171.171875 315.695312 159.9375 311.441406 L 21.359375 258.964844 C 10.128906 254.710938 4.46875 242.152344 8.722656 230.921875 L 88.375 20.59375 C 92.628906 9.359375 105.183594 3.699219 116.417969 7.957031 Z M 116.417969 7.957031 " clip-rule="nonzero"/></clipPath><clipPath id="86bd952094"><rect x="0" width="276" y="0" height="320"/></clipPath><mask id="e73adb44ae"><g filter="url(#87e27f6c0a)"><rect x="-144" width="1728" fill="#000000" y="-80.999999" height="971.999992" fill-opacity="0.5"/></g></mask><clipPath id="941faf692f"><path d="M 7 7 L 269 7 L 269 163 L 7 163 Z M 7 7 " clip-rule="nonzero"/></clipPath><clipPath id="3811134a63"><path d="M 95.898438 0.898438 L 275.15625 68.785156 L 180.101562 319.792969 L 0.84375 251.90625 Z M 95.898438 0.898438 " clip-rule="nonzero"/></clipPath><clipPath id="e6aeb877ac"><path d="M 116.238281 8.601562 L 254.816406 61.082031 C 266.050781 65.335938 271.707031 77.890625 267.453125 89.125 L 187.804688 299.453125 C 183.550781 310.6875 170.996094 316.34375 159.761719 312.089844 L 21.183594 259.609375 C 9.949219 255.355469 4.292969 242.800781 8.546875 231.566406 L 88.195312 21.238281 C 92.449219 10.003906 105.003906 4.347656 116.238281 8.601562 Z M 116.238281 8.601562 " clip-rule="nonzero"/></clipPath><clipPath id="ca93304467"><rect x="0" width="276" y="0" height="163"/></clipPath><mask id="e0ae160a54"><g filter="url(#87e27f6c0a)"><rect x="-144" width="1728" fill="#000000" y="-80.999999" height="971.999992" fill-opacity="0.5"/></g></mask><clipPath id="dfadaa71ef"><path d="M 6 6 L 269 6 L 269 314 L 6 314 Z M 6 6 " clip-rule="nonzero"/></clipPath><clipPath id="d5b768f3af"><path d="M 95.742188 0.5 L 275 68.382812 L 179.945312 319.390625 L 0.683594 251.507812 Z M 95.742188 0.5 " clip-rule="nonzero"/></clipPath><clipPath id="1d9b391a8c"><path d="M 116.082031 8.203125 L 254.660156 60.679688 C 265.894531 64.933594 271.550781 77.488281 267.296875 88.722656 L 187.648438 299.050781 C 183.390625 310.285156 170.835938 315.945312 159.601562 311.6875 L 21.023438 259.210938 C 9.792969 254.957031 4.132812 242.402344 8.386719 231.167969 L 88.039062 20.839844 C 92.292969 9.605469 104.847656 3.949219 116.082031 8.203125 Z M 116.082031 8.203125 " clip-rule="nonzero"/></clipPath><clipPath id="d71b887a96"><rect x="0" width="276" y="0" height="320"/></clipPath><mask id="3b528d815c"><g filter="url(#87e27f6c0a)"><rect x="-144" width="1728" fill="#000000" y="-80.999999" height="971.999992" fill-opacity="0.5"/></g></mask><clipPath id="bd194623de"><path d="M 6 7 L 269 7 L 269 114 L 6 114 Z M 6 7 " clip-rule="nonzero"/></clipPath><clipPath id="4d69a6e58b"><path d="M 95.3125 0.894531 L 274.570312 68.777344 L 179.515625 319.785156 L 0.253906 251.902344 Z M 95.3125 0.894531 " clip-rule="nonzero"/></clipPath><clipPath id="fd4a3615df"><path d="M 115.652344 8.597656 L 254.230469 61.074219 C 265.464844 65.328125 271.121094 77.886719 266.867188 89.117188 L 187.214844 299.445312 C 182.960938 310.679688 170.40625 316.339844 159.171875 312.085938 L 20.59375 259.605469 C 9.363281 255.351562 3.703125 242.796875 7.957031 231.5625 L 87.609375 21.234375 C 91.863281 10 104.417969 4.34375 115.652344 8.597656 Z M 115.652344 8.597656 " clip-rule="nonzero"/></clipPath><clipPath id="0385064e7a"><rect x="0" width="275" y="0" height="114"/></clipPath><mask id="a508bdb475"><g filter="url(#87e27f6c0a)"><rect x="-144" width="1728" fill="#000000" y="-80.999999" height="971.999992" fill-opacity="0.5"/></g></mask><clipPath id="57c28684c0"><path d="M 6 0 L 269 0 L 269 278 L 6 278 Z M 6 0 " clip-rule="nonzero"/></clipPath><clipPath id="258b06d3fe"><path d="M 95.070312 -35.386719 L 274.328125 32.496094 L 179.273438 283.503906 L 0.0117188 215.621094 Z M 95.070312 -35.386719 " clip-rule="nonzero"/></clipPath><clipPath id="9c2421fbe9"><path d="M 115.410156 -27.683594 L 253.988281 24.792969 C 265.222656 29.046875 270.878906 41.605469 266.625 52.835938 L 186.976562 263.164062 C 182.722656 274.398438 170.164062 280.058594 158.933594 275.804688 L 20.355469 223.324219 C 9.121094 219.070312 3.460938 206.515625 7.714844 195.28125 L 87.367188 -15.046875 C 91.621094 -26.28125 104.175781 -31.9375 115.410156 -27.683594 Z M 115.410156 -27.683594 " clip-rule="nonzero"/></clipPath><clipPath id="f85b21533c"><rect x="0" width="275" y="0" height="284"/></clipPath><mask id="0a5ba22679"><g filter="url(#87e27f6c0a)"><rect x="-144" width="1728" fill="#000000" y="-80.999999" height="971.999992" fill-opacity="0.5"/></g></mask><clipPath id="6f742706cf"><path d="M 7 7 L 269 7 L 269 314 L 7 314 Z M 7 7 " clip-rule="nonzero"/></clipPath><clipPath id="15a134b945"><path d="M 95.890625 1.007812 L 275.148438 68.890625 L 180.09375 319.902344 L 0.835938 252.015625 Z M 95.890625 1.007812 " clip-rule="nonzero"/></clipPath><clipPath id="cb4d58f34c"><path d="M 116.230469 8.710938 L 254.808594 61.1875 C 266.042969 65.441406 271.703125 78 267.449219 89.230469 L 187.796875 299.558594 C 183.542969 310.792969 170.988281 316.453125 159.753906 312.199219 L 21.175781 259.71875 C 9.941406 255.464844 4.285156 242.910156 8.539062 231.675781 L 88.1875 21.347656 C 92.441406 10.113281 105 4.457031 116.230469 8.710938 Z M 116.230469 8.710938 " clip-rule="nonzero"/></clipPath><clipPath id="3fe8833da7"><rect x="0" width="276" y="0" height="321"/></clipPath><mask id="bfae239c9c"><g filter="url(#87e27f6c0a)"><rect x="-144" width="1728" fill="#000000" y="-80.999999" height="971.999992" fill-opacity="0.5"/></g></mask><clipPath id="cfac71f433"><path d="M 7 0 L 270 0 L 270 226 L 7 226 Z M 7 0 " clip-rule="nonzero"/></clipPath><clipPath id="0f22eaf452"><path d="M 96.175781 -86.886719 L 275.433594 -19 L 180.375 232.007812 L 1.117188 164.121094 Z M 96.175781 -86.886719 " clip-rule="nonzero"/></clipPath><clipPath id="b76ee2ab31"><path d="M 116.515625 -79.183594 L 255.09375 -26.703125 C 266.324219 -22.449219 271.984375 -9.894531 267.730469 1.339844 L 188.078125 211.667969 C 183.824219 222.902344 171.269531 228.558594 160.035156 224.304688 L 21.457031 171.824219 C 10.222656 167.570312 4.566406 155.015625 8.820312 143.78125 L 88.472656 -66.546875 C 92.726562 -77.78125 105.28125 -83.4375 116.515625 -79.183594 Z M 116.515625 -79.183594 " clip-rule="nonzero"/></clipPath><clipPath id="b73ca8c199"><rect x="0" width="276" y="0" height="233"/></clipPath><mask id="efa84aac9a"><g filter="url(#87e27f6c0a)"><rect x="-144" width="1728" fill="#000000" y="-80.999999" height="971.999992" fill-opacity="0.5"/></g></mask><clipPath id="7bbb9558f9"><path d="M 6 6 L 269 6 L 269 314 L 6 314 Z M 6 6 " clip-rule="nonzero"/></clipPath><clipPath id="7e18ba5a32"><path d="M 95.742188 0.507812 L 275.003906 68.394531 L 179.945312 319.402344 L 0.6875 251.515625 Z M 95.742188 0.507812 " clip-rule="nonzero"/></clipPath><clipPath id="793614f563"><path d="M 116.085938 8.210938 L 254.664062 60.691406 C 265.894531 64.945312 271.554688 77.5 267.300781 88.734375 L 187.648438 299.0625 C 183.394531 310.296875 170.839844 315.953125 159.605469 311.699219 L 21.027344 259.21875 C 9.792969 254.964844 4.136719 242.410156 8.390625 231.175781 L 88.042969 20.847656 C 92.296875 9.617188 104.851562 3.957031 116.085938 8.210938 Z M 116.085938 8.210938 " clip-rule="nonzero"/></clipPath><clipPath id="ad71a73465"><rect x="0" width="276" y="0" height="320"/></clipPath><mask id="1586a4021c"><g filter="url(#87e27f6c0a)"><rect x="-144" width="1728" fill="#000000" y="-80.999999" height="971.999992" fill-opacity="0.5"/></g></mask><clipPath id="9eae45941d"><path d="M 7 6 L 269 6 L 269 313 L 7 313 Z M 7 6 " clip-rule="nonzero"/></clipPath><clipPath id="a22cccf28f"><path d="M 95.832031 0.15625 L 275.09375 68.039062 L 180.035156 319.050781 L 0.777344 251.164062 Z M 95.832031 0.15625 " clip-rule="nonzero"/></clipPath><clipPath id="4b9a4c597f"><path d="M 116.175781 7.859375 L 254.753906 60.335938 C 265.984375 64.589844 271.644531 77.148438 267.390625 88.378906 L 187.738281 298.707031 C 183.484375 309.941406 170.929688 315.601562 159.695312 311.347656 L 21.117188 258.867188 C 9.882812 254.613281 4.226562 242.058594 8.480469 230.824219 L 88.132812 20.496094 C 92.386719 9.261719 104.941406 3.605469 116.175781 7.859375 Z M 116.175781 7.859375 " clip-rule="nonzero"/></clipPath><clipPath id="74d7dba57f"><rect x="0" width="276" y="0" height="320"/></clipPath><mask id="9cc1d44a8f"><g filter="url(#87e27f6c0a)"><rect x="-144" width="1728" fill="#000000" y="-80.999999" height="971.999992" fill-opacity="0.5"/></g></mask><clipPath id="c2d25a6688"><path d="M 6 0 L 71 0 L 71 208 L 6 208 Z M 6 0 " clip-rule="nonzero"/></clipPath><clipPath id="81df0f44c3"><path d="M 95.507812 -105.289062 L 274.769531 -37.40625 L 179.710938 213.601562 L 0.453125 145.71875 Z M 95.507812 -105.289062 " clip-rule="nonzero"/></clipPath><clipPath id="dbd2926830"><path d="M 115.851562 -97.589844 L 254.429688 -45.109375 C 265.660156 -40.855469 271.320312 -28.300781 267.066406 -17.066406 L 187.414062 193.261719 C 183.160156 204.496094 170.605469 210.152344 159.371094 205.898438 L 20.792969 153.421875 C 9.558594 149.167969 3.902344 136.609375 8.15625 125.378906 L 87.804688 -84.949219 C 92.0625 -96.183594 104.617188 -101.84375 115.851562 -97.589844 Z M 115.851562 -97.589844 " clip-rule="nonzero"/></clipPath><clipPath id="332afaa98e"><rect x="0" width="71" y="0" height="214"/></clipPath><mask id="9f530f0a57"><g filter="url(#87e27f6c0a)"><rect x="-144" width="1728" fill="#000000" y="-80.999999" height="971.999992" fill-opacity="0.5"/></g></mask><clipPath id="b83af01846"><path d="M 6 6 L 174 6 L 174 313 L 6 313 Z M 6 6 " clip-rule="nonzero"/></clipPath><clipPath id="b3c431c0e2"><path d="M 95.332031 0.105469 L 274.589844 67.988281 L 179.535156 318.996094 L 0.273438 251.113281 Z M 95.332031 0.105469 " clip-rule="nonzero"/></clipPath><clipPath id="e580549302"><path d="M 115.671875 7.808594 L 254.25 60.285156 C 265.484375 64.539062 271.140625 77.09375 266.886719 88.328125 L 187.238281 298.65625 C 182.984375 309.890625 170.425781 315.546875 159.195312 311.292969 L 20.617188 258.816406 C 9.382812 254.5625 3.722656 242.007812 7.976562 230.773438 L 87.628906 20.445312 C 91.882812 9.210938 104.4375 3.550781 115.671875 7.808594 Z M 115.671875 7.808594 " clip-rule="nonzero"/></clipPath><clipPath id="a58c1046a0"><rect x="0" width="174" y="0" height="320"/></clipPath><mask id="cb7080bf70"><g filter="url(#87e27f6c0a)"><rect x="-144" width="1728" fill="#000000" y="-80.999999" height="971.999992" fill-opacity="0.5"/></g></mask><clipPath id="71c84f37f4"><path d="M 7 6 L 30 6 L 30 313 L 7 313 Z M 7 6 " clip-rule="nonzero"/></clipPath><clipPath id="f45cdf1e40"><path d="M 96.25 0.253906 L 275.507812 68.136719 L 180.453125 319.144531 L 1.195312 251.261719 Z M 96.25 0.253906 " clip-rule="nonzero"/></clipPath><clipPath id="764150c7ad"><path d="M 116.589844 7.957031 L 255.167969 60.433594 C 266.402344 64.6875 272.058594 77.242188 267.804688 88.476562 L 188.15625 298.804688 C 183.902344 310.039062 171.34375 315.695312 160.113281 311.441406 L 21.535156 258.964844 C 10.300781 254.710938 4.640625 242.152344 8.894531 230.921875 L 88.546875 20.59375 C 92.800781 9.359375 105.355469 3.699219 116.589844 7.957031 Z M 116.589844 7.957031 " clip-rule="nonzero"/></clipPath><clipPath id="4884d678c9"><rect x="0" width="30" y="0" height="320"/></clipPath><mask id="fd16e5c3e0"><g filter="url(#87e27f6c0a)"><rect x="-144" width="1728" fill="#000000" y="-80.999999" height="971.999992" fill-opacity="0.5"/></g></mask><clipPath id="708433ea9e"><path d="M 7 6 L 269 6 L 269 314 L 7 314 Z M 7 6 " clip-rule="nonzero"/></clipPath><clipPath id="c92760eeb0"><path d="M 95.914062 0.5 L 275.171875 68.382812 L 180.117188 319.390625 L 0.859375 251.507812 Z M 95.914062 0.5 " clip-rule="nonzero"/></clipPath><clipPath id="6eea382936"><path d="M 116.253906 8.203125 L 254.832031 60.679688 C 266.066406 64.933594 271.722656 77.488281 267.46875 88.722656 L 187.820312 299.050781 C 183.566406 310.285156 171.011719 315.945312 159.777344 311.6875 L 21.199219 259.210938 C 9.964844 254.957031 4.308594 242.402344 8.5625 231.167969 L 88.210938 20.839844 C 92.464844 9.605469 105.019531 3.949219 116.253906 8.203125 Z M 116.253906 8.203125 " clip-rule="nonzero"/></clipPath><clipPath id="5bc04cae82"><rect x="0" width="270" y="0" height="320"/></clipPath><mask id="3a5e59769e"><g filter="url(#87e27f6c0a)"><rect x="-144" width="1728" fill="#000000" y="-80.999999" height="971.999992" fill-opacity="0.5"/></g></mask><clipPath id="7430410d75"><path d="M 6 6 L 269 6 L 269 311 L 6 311 Z M 6 6 " clip-rule="nonzero"/></clipPath><clipPath id="f2bd8d6023"><path d="M 95.199219 0.402344 L 274.457031 68.285156 L 179.402344 319.296875 L 0.144531 251.410156 Z M 95.199219 0.402344 " clip-rule="nonzero"/></clipPath><clipPath id="e7de13ea80"><path d="M 115.539062 8.105469 L 254.117188 60.585938 C 265.351562 64.839844 271.007812 77.394531 266.753906 88.628906 L 187.105469 298.957031 C 182.851562 310.1875 170.296875 315.847656 159.0625 311.59375 L 20.484375 259.113281 C 9.25 254.859375 3.589844 242.304688 7.847656 231.070312 L 87.496094 20.742188 C 91.75 9.507812 104.304688 3.851562 115.539062 8.105469 Z M 115.539062 8.105469 " clip-rule="nonzero"/></clipPath><clipPath id="87e326f8c7"><rect x="0" width="275" y="0" height="311"/></clipPath><mask id="76abd55e72"><g filter="url(#87e27f6c0a)"><rect x="-144" width="1728" fill="#000000" y="-80.999999" height="971.999992" fill-opacity="0.5"/></g></mask><clipPath id="6ccc23da1b"><path d="M 7 7 L 269 7 L 269 44 L 7 44 Z M 7 7 " clip-rule="nonzero"/></clipPath><clipPath id="986534f87e"><path d="M 95.769531 0.796875 L 275.027344 68.683594 L 179.972656 319.691406 L 0.714844 251.804688 Z M 95.769531 0.796875 " clip-rule="nonzero"/></clipPath><clipPath id="17cf046500"><path d="M 116.109375 8.5 L 254.6875 60.980469 C 265.921875 65.234375 271.578125 77.789062 267.324219 89.023438 L 187.675781 299.351562 C 183.421875 310.582031 170.863281 316.242188 159.632812 311.988281 L 21.054688 259.507812 C 9.820312 255.253906 4.160156 242.699219 8.414062 231.464844 L 88.066406 21.136719 C 92.320312 9.902344 104.875 4.246094 116.109375 8.5 Z M 116.109375 8.5 " clip-rule="nonzero"/></clipPath><clipPath id="f7c3fd9f6c"><rect x="0" width="276" y="0" height="44"/></clipPath><mask id="4bd045718c"><g filter="url(#87e27f6c0a)"><rect x="-144" width="1728" fill="#000000" y="-80.999999" height="971.999992" fill-opacity="0.5"/></g></mask><clipPath id="54d8d36ff4"><path d="M 6 7 L 269 7 L 269 93 L 6 93 Z M 6 7 " clip-rule="nonzero"/></clipPath><clipPath id="15e5fcf9b8"><path d="M 95.597656 0.800781 L 274.855469 68.6875 L 179.800781 319.695312 L 0.542969 251.8125 Z M 95.597656 0.800781 " clip-rule="nonzero"/></clipPath><clipPath id="0a5285d565"><path d="M 115.9375 8.503906 L 254.515625 60.984375 C 265.75 65.238281 271.40625 77.792969 267.152344 89.027344 L 187.503906 299.355469 C 183.25 310.589844 170.695312 316.246094 159.460938 311.992188 L 20.882812 259.515625 C 9.648438 255.261719 3.992188 242.703125 8.246094 231.472656 L 87.894531 21.144531 C 92.148438 9.910156 104.703125 4.25 115.9375 8.503906 Z M 115.9375 8.503906 " clip-rule="nonzero"/></clipPath><clipPath id="f46665511a"><rect x="0" width="276" y="0" height="93"/></clipPath><mask id="9578a5a25d"><g filter="url(#87e27f6c0a)"><rect x="-144" width="1728" fill="#000000" y="-80.999999" height="971.999992" fill-opacity="0.5"/></g></mask><clipPath id="58e0540f18"><path d="M 6 7 L 269 7 L 269 114 L 6 114 Z M 6 7 " clip-rule="nonzero"/></clipPath><clipPath id="0aa7f9cf28"><path d="M 95.765625 0.894531 L 275.023438 68.777344 L 179.964844 319.785156 L 0.707031 251.902344 Z M 95.765625 0.894531 " clip-rule="nonzero"/></clipPath><clipPath id="4790c437f4"><path d="M 116.105469 8.597656 L 254.683594 61.074219 C 265.914062 65.328125 271.574219 77.886719 267.320312 89.117188 L 187.667969 299.445312 C 183.414062 310.679688 170.859375 316.339844 159.625 312.085938 L 21.046875 259.605469 C 9.816406 255.351562 4.15625 242.796875 8.410156 231.5625 L 88.0625 21.234375 C 92.316406 10 104.871094 4.34375 116.105469 8.597656 Z M 116.105469 8.597656 " clip-rule="nonzero"/></clipPath><clipPath id="35328d69bb"><rect x="0" width="276" y="0" height="114"/></clipPath><mask id="2e3948dab9"><g filter="url(#87e27f6c0a)"><rect x="-144" width="1728" fill="#000000" y="-80.999999" height="971.999992" fill-opacity="0.5"/></g></mask><clipPath id="69d1c345f5"><path d="M 6 7 L 132 7 L 132 152 L 6 152 Z M 6 7 " clip-rule="nonzero"/></clipPath><clipPath id="fea2d0cf47"><path d="M 95.070312 0.847656 L 274.332031 68.734375 L 179.273438 319.742188 L 0.015625 251.859375 Z M 95.070312 0.847656 " clip-rule="nonzero"/></clipPath><clipPath id="6869148cb2"><path d="M 115.410156 8.550781 L 253.988281 61.03125 C 265.222656 65.285156 270.882812 77.839844 266.628906 89.074219 L 186.976562 299.402344 C 182.722656 310.636719 170.167969 316.292969 158.933594 312.039062 L 20.355469 259.558594 C 9.121094 255.304688 3.464844 242.75 7.71875 231.515625 L 87.367188 21.1875 C 91.621094 9.957031 104.179688 4.296875 115.410156 8.550781 Z M 115.410156 8.550781 " clip-rule="nonzero"/></clipPath><clipPath id="53bf6233de"><rect x="0" width="132" y="0" height="152"/></clipPath><clipPath id="359de0118c"><path d="M 0 0 L 457 0 L 457 481 L 0 481 Z M 0 0 " clip-rule="nonzero"/></clipPath><clipPath id="21e2efe313"><path d="M -142.617188 -89.085938 L 456.785156 -173.019531 L 536.664062 397.414062 L -62.738281 481.347656 Z M -142.617188 -89.085938 " clip-rule="nonzero"/></clipPath><clipPath id="fd1ecd2db6"><path d="M -142.617188 -89.085938 L 456.785156 -173.019531 L 536.664062 397.414062 L -62.738281 481.347656 Z M -142.617188 -89.085938 " clip-rule="nonzero"/></clipPath><clipPath id="6fbbab508e"><path d="M 1145 404 L 1440 404 L 1440 810 L 1145 810 Z M 1145 404 " clip-rule="nonzero"/></clipPath><clipPath id="7941f3583b"><path d="M 1084.652344 488.917969 L 1684.054688 404.984375 L 1763.933594 975.417969 L 1164.53125 1059.355469 Z M 1084.652344 488.917969 " clip-rule="nonzero"/></clipPath><clipPath id="0e93ed9e3b"><path d="M 1084.652344 488.917969 L 1684.054688 404.984375 L 1763.933594 975.417969 L 1164.53125 1059.355469 Z M 1084.652344 488.917969 " clip-rule="nonzero"/></clipPath></defs><rect x="-144" width="1728" fill="#ffffff" y="-80.999999" height="971.999992" fill-opacity="1"/><rect x="-144" width="1728" fill="#040404" y="-80.999999" height="971.999992" fill-opacity="1"/><g mask="url(#d706c686a9)"><g transform="matrix(1, 0, 0, 1, 0, 0.000000000000039746)"><g clip-path="url(#fc823987f4)"><g clip-path="url(#3ca5ada31f)"><g clip-path="url(#ba4d1f171d)"><g clip-path="url(#b02b490357)"><path fill="#2c3656" d="M 38.898438 -35.386719 L 218.15625 32.496094 L 123.097656 283.503906 L -56.160156 215.621094 Z M 38.898438 -35.386719 " fill-opacity="1" fill-rule="nonzero"/></g></g></g></g></g></g><g mask="url(#505ce6f902)"><g transform="matrix(1, 0, 0, 1, 0, 231)"><g clip-path="url(#01d2b56a37)"><g clip-path="url(#16e282d0a1)"><g clip-path="url(#9cb4fdcfa0)"><g clip-path="url(#315c0d360b)"><path fill="#2c3656" d="M -64.28125 1.007812 L 114.976562 68.890625 L 19.921875 319.902344 L -159.335938 252.015625 Z M -64.28125 1.007812 " fill-opacity="1" fill-rule="nonzero"/></g></g></g></g></g></g><g mask="url(#49aee02697)"><g transform="matrix(1, 0, 0, 1, 196, 0.000000000000039746)"><g clip-path="url(#f8705b2045)"><g clip-path="url(#2b581682bb)"><g clip-path="url(#7ca3b84ec9)"><g clip-path="url(#df560b1f55)"><path fill="#2c3656" d="M 96 -86.886719 L 275.257812 -19 L 180.203125 232.007812 L 0.945312 164.121094 Z M 96 -86.886719 " fill-opacity="1" fill-rule="nonzero"/></g></g></g></g></g></g><g mask="url(#3a7d6210c5)"><g transform="matrix(1, 0, 0, 1, 92, 180)"><g clip-path="url(#8b463a0ea7)"><g clip-path="url(#9ab49a95b7)"><g clip-path="url(#069a2fc57b)"><g clip-path="url(#750b50cebb)"><path fill="#2c3656" d="M 95.570312 0.507812 L 274.828125 68.394531 L 179.773438 319.402344 L 0.515625 251.515625 Z M 95.570312 0.507812 " fill-opacity="1" fill-rule="nonzero"/></g></g></g></g></g></g><g mask="url(#a3deba64cf)"><g transform="matrix(1, 0, 0, 1, 0, 449)"><g clip-path="url(#3da41df872)"><g clip-path="url(#da6f675f4c)"><g clip-path="url(#c53d42118a)"><g clip-path="url(#afac36dc59)"><path fill="#2c3656" d="M 80.636719 0.15625 L 259.894531 68.039062 L 164.839844 319.050781 L -14.417969 251.164062 Z M 80.636719 0.15625 " fill-opacity="1" fill-rule="nonzero"/></g></g></g></g></g></g><g mask="url(#dcc0e311f8)"><g transform="matrix(1, 0, 0, 1, 0, 717)"><g clip-path="url(#8df72c036d)"><g clip-path="url(#10a3ed7de4)"><g clip-path="url(#7973bb0184)"><g clip-path="url(#dd3d9c7bc9)"><path fill="#2c3656" d="M -22.542969 0.800781 L 156.71875 68.6875 L 61.660156 319.695312 L -117.597656 251.8125 Z M -22.542969 0.800781 " fill-opacity="1" fill-rule="nonzero"/></g></g></g></g></g></g><g mask="url(#8af29a95f7)"><g transform="matrix(1, 0, 0, 1, 437, 0.000000000000039746)"><g clip-path="url(#58ff224bfc)"><g clip-path="url(#f3b19d12a9)"><g clip-path="url(#352db31777)"><g clip-path="url(#4cf51bf330)"><path fill="#2c3656" d="M 95.335938 -105.289062 L 274.59375 -37.40625 L 179.539062 213.601562 L 0.28125 145.71875 Z M 95.335938 -105.289062 " fill-opacity="1" fill-rule="nonzero"/></g></g></g></g></g></g><g mask="url(#150a8e9aa5)"><g transform="matrix(1, 0, 0, 1, 334, 162)"><g clip-path="url(#810e232f5e)"><g clip-path="url(#078a894fce)"><g clip-path="url(#4ae67eca2e)"><g clip-path="url(#1dcda9c5d0)"><path fill="#2c3656" d="M 95.160156 0.105469 L 274.417969 67.988281 L 179.359375 318.996094 L 0.101562 251.113281 Z M 95.160156 0.105469 " fill-opacity="1" fill-rule="nonzero"/></g></g></g></g></g></g><g mask="url(#7a398fed06)"><g transform="matrix(1, 0, 0, 1, 690, 0.000000000000039746)"><g clip-path="url(#3d265f4aef)"><g clip-path="url(#877153976f)"><g clip-path="url(#01964e7356)"><g clip-path="url(#53271cc980)"><path fill="#2c3656" d="M 95.441406 -156.789062 L 274.699219 -88.90625 L 179.644531 162.105469 L 0.382812 94.21875 Z M 95.441406 -156.789062 " fill-opacity="1" fill-rule="nonzero"/></g></g></g></g></g></g><g mask="url(#ea05228761)"><g transform="matrix(1, 0, 0, 1, 585, 110)"><g clip-path="url(#7ed40e08d3)"><g clip-path="url(#c425220362)"><g clip-path="url(#e8edd76d47)"><g clip-path="url(#1102ca07f3)"><path fill="#2c3656" d="M 96.011719 0.605469 L 275.269531 68.488281 L 180.214844 319.5 L 0.953125 251.613281 Z M 96.011719 0.605469 " fill-opacity="1" fill-rule="nonzero"/></g></g></g></g></g></g><g mask="url(#c4045c258f)"><g transform="matrix(1, 0, 0, 1, 478, 379)"><g clip-path="url(#86bd952094)"><g clip-path="url(#a2d27121aa)"><g clip-path="url(#c54959c59a)"><g clip-path="url(#4393c8e30b)"><path fill="#2c3656" d="M 96.078125 0.253906 L 275.335938 68.136719 L 180.28125 319.144531 L 1.019531 251.261719 Z M 96.078125 0.253906 " fill-opacity="1" fill-rule="nonzero"/></g></g></g></g></g></g><g mask="url(#e73adb44ae)"><g transform="matrix(1, 0, 0, 1, 375, 647)"><g clip-path="url(#ca93304467)"><g clip-path="url(#941faf692f)"><g clip-path="url(#3811134a63)"><g clip-path="url(#e6aeb877ac)"><path fill="#2c3656" d="M 95.898438 0.898438 L 275.15625 68.785156 L 180.101562 319.792969 L 0.84375 251.90625 Z M 95.898438 0.898438 " fill-opacity="1" fill-rule="nonzero"/></g></g></g></g></g></g><g mask="url(#e0ae160a54)"><g transform="matrix(1, 0, 0, 1, 238, 429)"><g clip-path="url(#d71b887a96)"><g clip-path="url(#dfadaa71ef)"><g clip-path="url(#d5b768f3af)"><g clip-path="url(#1d9b391a8c)"><path fill="#2c3656" d="M 95.742188 0.5 L 275 68.382812 L 179.945312 319.390625 L 0.683594 251.507812 Z M 95.742188 0.5 " fill-opacity="1" fill-rule="nonzero"/></g></g></g></g></g></g><g mask="url(#3b528d815c)"><g transform="matrix(1, 0, 0, 1, 134, 696)"><g clip-path="url(#0385064e7a)"><g clip-path="url(#bd194623de)"><g clip-path="url(#4d69a6e58b)"><g clip-path="url(#fd4a3615df)"><path fill="#2c3656" d="M 95.3125 0.894531 L 274.570312 68.777344 L 179.515625 319.785156 L 0.253906 251.902344 Z M 95.3125 0.894531 " fill-opacity="1" fill-rule="nonzero"/></g></g></g></g></g></g><g mask="url(#a508bdb475)"><g transform="matrix(1, 0, 0, 1, 876, 0.000000000000039746)"><g clip-path="url(#f85b21533c)"><g clip-path="url(#57c28684c0)"><g clip-path="url(#258b06d3fe)"><g clip-path="url(#9c2421fbe9)"><path fill="#2c3656" d="M 95.070312 -35.386719 L 274.328125 32.496094 L 179.273438 283.503906 L 0.0117188 215.621094 Z M 95.070312 -35.386719 " fill-opacity="1" fill-rule="nonzero"/></g></g></g></g></g></g><g mask="url(#0a5ba22679)"><g transform="matrix(1, 0, 0, 1, 772, 231)"><g clip-path="url(#3fe8833da7)"><g clip-path="url(#6f742706cf)"><g clip-path="url(#15a134b945)"><g clip-path="url(#cb4d58f34c)"><path fill="#2c3656" d="M 95.890625 1.007812 L 275.148438 68.890625 L 180.09375 319.902344 L 0.835938 252.015625 Z M 95.890625 1.007812 " fill-opacity="1" fill-rule="nonzero"/></g></g></g></g></g></g><g mask="url(#bfae239c9c)"><g transform="matrix(1, 0, 0, 1, 1128, 0.000000000000039746)"><g clip-path="url(#b73ca8c199)"><g clip-path="url(#cfac71f433)"><g clip-path="url(#0f22eaf452)"><g clip-path="url(#b76ee2ab31)"><path fill="#2c3656" d="M 96.175781 -86.886719 L 275.433594 -19 L 180.375 232.007812 L 1.117188 164.121094 Z M 96.175781 -86.886719 " fill-opacity="1" fill-rule="nonzero"/></g></g></g></g></g></g><g mask="url(#efa84aac9a)"><g transform="matrix(1, 0, 0, 1, 1024, 180)"><g clip-path="url(#ad71a73465)"><g clip-path="url(#7bbb9558f9)"><g clip-path="url(#7e18ba5a32)"><g clip-path="url(#793614f563)"><path fill="#2c3656" d="M 95.742188 0.507812 L 275.003906 68.394531 L 179.945312 319.402344 L 0.6875 251.515625 Z M 95.742188 0.507812 " fill-opacity="1" fill-rule="nonzero"/></g></g></g></g></g></g><g mask="url(#1586a4021c)"><g transform="matrix(1, 0, 0, 1, 929, 449)"><g clip-path="url(#74d7dba57f)"><g clip-path="url(#9eae45941d)"><g clip-path="url(#a22cccf28f)"><g clip-path="url(#4b9a4c597f)"><path fill="#2c3656" d="M 95.832031 0.15625 L 275.09375 68.039062 L 180.035156 319.050781 L 0.777344 251.164062 Z M 95.832031 0.15625 " fill-opacity="1" fill-rule="nonzero"/></g></g></g></g></g></g><g mask="url(#9cc1d44a8f)"><g transform="matrix(1, 0, 0, 1, 1369, 0.000000000000039746)"><g clip-path="url(#332afaa98e)"><g clip-path="url(#c2d25a6688)"><g clip-path="url(#81df0f44c3)"><g clip-path="url(#dbd2926830)"><path fill="#2c3656" d="M 95.507812 -105.289062 L 274.769531 -37.40625 L 179.710938 213.601562 L 0.453125 145.71875 Z M 95.507812 -105.289062 " fill-opacity="1" fill-rule="nonzero"/></g></g></g></g></g></g><g mask="url(#9f530f0a57)"><g transform="matrix(1, 0, 0, 1, 1266, 162)"><g clip-path="url(#a58c1046a0)"><g clip-path="url(#b83af01846)"><g clip-path="url(#b3c431c0e2)"><g clip-path="url(#e580549302)"><path fill="#2c3656" d="M 95.332031 0.105469 L 274.589844 67.988281 L 179.535156 318.996094 L 0.273438 251.113281 Z M 95.332031 0.105469 " fill-opacity="1" fill-rule="nonzero"/></g></g></g></g></g></g><g mask="url(#cb7080bf70)"><g transform="matrix(1, 0, 0, 1, 1410, 379)"><g clip-path="url(#4884d678c9)"><g clip-path="url(#71c84f37f4)"><g clip-path="url(#f45cdf1e40)"><g clip-path="url(#764150c7ad)"><path fill="#2c3656" d="M 96.25 0.253906 L 275.507812 68.136719 L 180.453125 319.144531 L 1.195312 251.261719 Z M 96.25 0.253906 " fill-opacity="1" fill-rule="nonzero"/></g></g></g></g></g></g><g mask="url(#fd16e5c3e0)"><g transform="matrix(1, 0, 0, 1, 1170, 429)"><g clip-path="url(#5bc04cae82)"><g clip-path="url(#708433ea9e)"><g clip-path="url(#c92760eeb0)"><g clip-path="url(#6eea382936)"><path fill="#2c3656" d="M 95.914062 0.5 L 275.171875 68.382812 L 180.117188 319.390625 L 0.859375 251.507812 Z M 95.914062 0.5 " fill-opacity="1" fill-rule="nonzero"/></g></g></g></g></g></g><g mask="url(#3a5e59769e)"><g transform="matrix(1, 0, 0, 1, 678, 499)"><g clip-path="url(#87e326f8c7)"><g clip-path="url(#7430410d75)"><g clip-path="url(#f2bd8d6023)"><g clip-path="url(#e7de13ea80)"><path fill="#2c3656" d="M 95.199219 0.402344 L 274.457031 68.285156 L 179.402344 319.296875 L 0.144531 251.410156 Z M 95.199219 0.402344 " fill-opacity="1" fill-rule="nonzero"/></g></g></g></g></g></g><g mask="url(#76abd55e72)"><g transform="matrix(1, 0, 0, 1, 573, 766)"><g clip-path="url(#f7c3fd9f6c)"><g clip-path="url(#6ccc23da1b)"><g clip-path="url(#986534f87e)"><g clip-path="url(#17cf046500)"><path fill="#2c3656" d="M 95.769531 0.796875 L 275.027344 68.683594 L 179.972656 319.691406 L 0.714844 251.804688 Z M 95.769531 0.796875 " fill-opacity="1" fill-rule="nonzero"/></g></g></g></g></g></g><g mask="url(#4bd045718c)"><g transform="matrix(1, 0, 0, 1, 827, 717)"><g clip-path="url(#f46665511a)"><g clip-path="url(#54d8d36ff4)"><g clip-path="url(#15e5fcf9b8)"><g clip-path="url(#0a5285d565)"><path fill="#2c3656" d="M 95.597656 0.800781 L 274.855469 68.6875 L 179.800781 319.695312 L 0.542969 251.8125 Z M 95.597656 0.800781 " fill-opacity="1" fill-rule="nonzero"/></g></g></g></g></g></g><g mask="url(#9578a5a25d)"><g transform="matrix(1, 0, 0, 1, 1068, 696)"><g clip-path="url(#35328d69bb)"><g clip-path="url(#58e0540f18)"><g clip-path="url(#0aa7f9cf28)"><g clip-path="url(#4790c437f4)"><path fill="#2c3656" d="M 95.765625 0.894531 L 275.023438 68.777344 L 179.964844 319.785156 L 0.707031 251.902344 Z M 95.765625 0.894531 " fill-opacity="1" fill-rule="nonzero"/></g></g></g></g></g></g><g mask="url(#2e3948dab9)"><g transform="matrix(1, 0, 0, 1, 1308, 658)"><g clip-path="url(#53bf6233de)"><g clip-path="url(#69d1c345f5)"><g clip-path="url(#fea2d0cf47)"><g clip-path="url(#6869148cb2)"><path fill="#2c3656" d="M 95.070312 0.847656 L 274.332031 68.734375 L 179.273438 319.742188 L 0.015625 251.859375 Z M 95.070312 0.847656 " fill-opacity="1" fill-rule="nonzero"/></g></g></g></g></g></g><g clip-path="url(#359de0118c)"><g clip-path="url(#21e2efe313)"><g clip-path="url(#fd1ecd2db6)"><path fill="#f6f8f9" d="M 403.402344 -158.863281 C 408.542969 -159.554688 412.179688 -156.296875 411.390625 -151.683594 C 403.035156 -102.808594 384.511719 -62.003906 359.378906 -26.460938 C 357.003906 -23.109375 351.308594 -21.003906 346.742188 -21.699219 C 312.671875 -26.832031 278.597656 -31.96875 244.53125 -37.101562 C 239.964844 -37.808594 237.726562 -40.347656 239.480469 -42.824219 C 258.210938 -69.316406 272.015625 -99.71875 278.242188 -136.144531 C 278.828125 -139.550781 283.394531 -142.941406 288.542969 -143.640625 C 326.832031 -148.714844 365.113281 -153.789062 403.402344 -158.863281 Z M 444.261719 -159.238281 C 445.425781 -159.382812 446.234375 -158.582031 446.046875 -157.46875 C 445.34375 -153.230469 444.570312 -149.050781 443.730469 -144.925781 C 443.507812 -143.832031 442.375 -142.863281 441.222656 -142.757812 C 434.019531 -142.078125 426.824219 -141.402344 419.628906 -140.722656 C 418.484375 -140.613281 417.71875 -141.367188 417.925781 -142.40625 C 418.734375 -146.335938 419.46875 -150.324219 420.136719 -154.359375 C 420.3125 -155.425781 421.398438 -156.414062 422.550781 -156.558594 C 429.789062 -157.449219 437.023438 -158.34375 444.261719 -159.238281 Z M 435.726562 -120.546875 C 436.871094 -120.605469 437.574219 -119.820312 437.277344 -118.792969 C 436.140625 -114.898438 434.9375 -111.058594 433.679688 -107.269531 C 433.347656 -106.265625 432.140625 -105.429688 431.003906 -105.402344 C 423.941406 -105.214844 416.875 -105.019531 409.8125 -104.824219 C 408.6875 -104.796875 408.023438 -105.542969 408.34375 -106.496094 C 409.550781 -110.109375 410.691406 -113.777344 411.773438 -117.488281 C 412.058594 -118.460938 413.21875 -119.3125 414.351562 -119.375 C 421.476562 -119.769531 428.601562 -120.152344 435.726562 -120.546875 Z M 423.253906 -84.964844 C 424.375 -84.953125 424.976562 -84.1875 424.570312 -83.242188 C 423.042969 -79.65625 421.449219 -76.117188 419.804688 -72.621094 C 419.378906 -71.714844 418.117188 -71.003906 417.011719 -71.042969 C 410.128906 -71.296875 403.25 -71.558594 396.367188 -71.8125 C 395.277344 -71.851562 394.714844 -72.597656 395.113281 -73.460938 C 396.6875 -76.796875 398.199219 -80.171875 399.660156 -83.585938 C 400.042969 -84.480469 401.257812 -85.199219 402.367188 -85.1875 C 409.328125 -85.113281 416.292969 -85.039062 423.253906 -84.964844 Z M 407.234375 -52.21875 C 408.320312 -52.136719 408.808594 -51.359375 408.324219 -50.507812 C 406.441406 -47.199219 404.507812 -43.933594 402.523438 -40.710938 C 402 -39.859375 400.703125 -39.273438 399.628906 -39.378906 C 392.976562 -40.046875 386.320312 -40.714844 379.664062 -41.386719 C 378.613281 -41.492188 378.136719 -42.222656 378.636719 -43.03125 C 380.527344 -46.105469 382.371094 -49.21875 384.164062 -52.371094 C 384.628906 -53.183594 385.898438 -53.800781 386.972656 -53.722656 C 393.726562 -53.222656 400.484375 -52.71875 407.234375 -52.21875 Z M 388.050781 -21.984375 C 389.089844 -21.839844 389.488281 -21.070312 388.910156 -20.261719 C 386.71875 -17.207031 384.476562 -14.1875 382.199219 -11.203125 C 381.59375 -10.417969 380.265625 -9.921875 379.238281 -10.089844 C 372.851562 -11.140625 366.457031 -12.1875 360.070312 -13.238281 C 359.054688 -13.410156 358.6875 -14.152344 359.257812 -14.902344 C 361.433594 -17.746094 363.566406 -20.625 365.65625 -23.539062 C 366.203125 -24.308594 367.503906 -24.8125 368.539062 -24.671875 C 375.042969 -23.78125 381.546875 -22.878906 388.050781 -21.984375 Z M 341.664062 -15.011719 C 346.191406 -14.273438 347.835938 -11.027344 345.253906 -7.847656 C 317.859375 25.90625 284.488281 54.921875 248.707031 82.015625 C 245.332031 84.570312 239.75 85.207031 236.296875 83.457031 C 210.445312 70.5 184.59375 57.542969 158.742188 44.582031 C 155.28125 42.835938 154.515625 39.894531 157.011719 38.003906 C 183.675781 17.816406 208.542969 -3.800781 228.957031 -28.953125 C 230.871094 -31.316406 236.050781 -32.648438 240.585938 -31.910156 C 274.277344 -26.28125 307.972656 -20.648438 341.664062 -15.011719 Z M 366.085938 6.039062 C 367.089844 6.242188 367.382812 7.015625 366.730469 7.765625 C 364.269531 10.605469 361.765625 13.414062 359.230469 16.195312 C 358.5625 16.925781 357.210938 17.339844 356.234375 17.105469 C 350.140625 15.703125 344.054688 14.296875 337.964844 12.894531 C 337 12.675781 336.722656 11.917969 337.355469 11.222656 C 339.773438 8.574219 342.160156 5.894531 344.507812 3.1875 C 345.128906 2.476562 346.441406 2.0625 347.429688 2.257812 C 353.648438 3.519531 359.867188 4.777344 366.085938 6.039062 Z M 341.722656 32.171875 C 342.667969 32.429688 342.875 33.207031 342.167969 33.902344 C 339.472656 36.5625 336.746094 39.195312 333.992188 41.804688 C 333.269531 42.488281 331.921875 42.808594 330.996094 42.535156 C 325.230469 40.796875 319.472656 39.0625 313.710938 37.324219 C 312.800781 37.046875 312.605469 36.289062 313.289062 35.640625 C 315.917969 33.15625 318.523438 30.648438 321.089844 28.109375 C 321.765625 27.445312 323.082031 27.117188 324.015625 27.367188 C 329.921875 28.972656 335.820312 30.574219 341.722656 32.171875 Z M 315.351562 56.703125 C 316.253906 57.007812 316.363281 57.800781 315.613281 58.453125 C 312.726562 60.964844 309.820312 63.449219 306.882812 65.921875 C 306.109375 66.570312 304.777344 66.820312 303.910156 66.492188 C 298.5 64.441406 293.089844 62.390625 287.679688 60.34375 C 286.824219 60.019531 286.707031 59.253906 287.441406 58.636719 C 290.242188 56.285156 293.015625 53.914062 295.769531 51.519531 C 296.476562 50.902344 297.804688 50.632812 298.683594 50.941406 C 304.238281 52.859375 309.796875 54.78125 315.351562 56.703125 Z M 287.367188 79.941406 C 288.203125 80.296875 288.234375 81.105469 287.433594 81.734375 C 284.40625 84.121094 281.355469 86.492188 278.289062 88.851562 C 277.480469 89.472656 276.15625 89.671875 275.347656 89.292969 C 270.308594 86.945312 265.277344 84.601562 260.238281 82.257812 C 259.441406 81.878906 259.40625 81.097656 260.179688 80.5 C 263.105469 78.25 266.011719 75.996094 268.898438 73.714844 C 269.660156 73.121094 270.960938 72.921875 271.785156 73.269531 C 276.980469 75.492188 282.171875 77.714844 287.367188 79.941406 Z M 141.007812 41.015625 C 141.785156 41.421875 141.957031 42.089844 141.390625 42.5 C 139.242188 44.074219 137.085938 45.644531 134.921875 47.207031 C 134.351562 47.613281 133.277344 47.613281 132.53125 47.183594 C 127.878906 44.550781 123.230469 41.921875 118.582031 39.289062 C 117.832031 38.867188 117.667969 38.214844 118.195312 37.832031 C 120.214844 36.375 122.222656 34.917969 124.222656 33.449219 C 124.75 33.066406 125.800781 33.074219 126.574219 33.476562 C 131.386719 35.988281 136.199219 38.503906 141.007812 41.015625 Z M 258.140625 102.203125 C 258.914062 102.601562 258.871094 103.433594 258.046875 104.035156 C 254.910156 106.339844 251.757812 108.628906 248.597656 110.914062 C 247.761719 111.511719 246.472656 111.652344 245.722656 111.234375 C 241.070312 108.605469 236.421875 105.972656 231.773438 103.34375 C 231.03125 102.925781 231.078125 102.113281 231.867188 101.539062 C 234.882812 99.359375 237.886719 97.175781 240.882812 94.980469 C 241.671875 94.402344 242.941406 94.265625 243.707031 94.660156 C 248.519531 97.171875 253.332031 99.6875 258.140625 102.203125 Z M 228.050781 123.789062 C 228.765625 124.238281 228.671875 125.082031 227.824219 125.671875 C 224.617188 127.925781 221.402344 130.171875 218.179688 132.414062 C 217.339844 132.996094 216.089844 133.089844 215.402344 132.625 C 211.152344 129.714844 206.894531 126.804688 202.644531 123.890625 C 201.96875 123.433594 202.070312 122.589844 202.867188 122.035156 C 205.9375 119.902344 209 117.761719 212.0625 115.609375 C 212.863281 115.050781 214.09375 114.957031 214.792969 115.40625 C 219.210938 118.203125 223.632812 120.992188 228.050781 123.789062 Z M 197.507812 145 C 198.160156 145.496094 197.996094 146.375 197.152344 146.957031 C 193.914062 149.183594 190.679688 151.417969 187.445312 153.644531 C 186.59375 154.234375 185.402344 154.285156 184.785156 153.777344 C 180.925781 150.585938 177.070312 147.398438 173.21875 144.214844 C 172.605469 143.707031 172.75 142.84375 173.558594 142.285156 C 176.644531 140.15625 179.730469 138.03125 182.816406 135.902344 C 183.617188 135.355469 184.808594 135.300781 185.445312 135.789062 C 189.46875 138.859375 193.488281 141.929688 197.507812 145 Z M 166.886719 166.148438 C 167.472656 166.6875 167.253906 167.613281 166.40625 168.199219 C 163.1875 170.433594 159.976562 172.679688 156.773438 174.929688 C 155.929688 175.519531 154.785156 175.550781 154.230469 174.992188 C 150.773438 171.53125 147.316406 168.066406 143.859375 164.609375 C 143.308594 164.054688 143.507812 163.144531 144.3125 162.574219 C 147.371094 160.429688 150.433594 158.296875 153.5 156.160156 C 154.308594 155.601562 155.445312 155.582031 156.019531 156.109375 C 159.644531 159.453125 163.265625 162.800781 166.886719 166.148438 Z M 136.570312 187.539062 C 137.09375 188.121094 136.832031 189.089844 136.003906 189.6875 C 132.835938 191.972656 129.6875 194.261719 126.550781 196.566406 C 125.722656 197.171875 124.644531 197.175781 124.15625 196.574219 C 121.085938 192.832031 118.023438 189.085938 114.957031 185.347656 C 114.46875 184.746094 114.710938 183.78125 115.496094 183.210938 C 118.488281 181.015625 121.492188 178.828125 124.511719 176.652344 C 125.300781 176.078125 126.375 176.085938 126.886719 176.667969 C 130.117188 180.289062 133.34375 183.914062 136.570312 187.539062 Z M 100.722656 179.371094 C 102.847656 182.066406 101.8125 186.304688 98.4375 188.859375 C 62.652344 215.953125 29.285156 244.964844 1.894531 278.71875 C -0.695312 281.902344 -3.589844 281.539062 -4.644531 277.847656 C -12.566406 250.425781 -20.492188 223 -28.414062 195.578125 C -29.46875 191.886719 -28.820312 186.9375 -26.910156 184.585938 C -6.492188 159.433594 18.367188 137.816406 45.035156 117.625 C 47.527344 115.734375 51.304688 116.398438 53.429688 119.085938 C 69.195312 139.183594 84.960938 159.277344 100.722656 179.371094 Z M 106.933594 209.488281 C 107.390625 210.121094 107.117188 211.128906 106.308594 211.75 C 103.234375 214.109375 100.179688 216.484375 97.148438 218.875 C 96.359375 219.496094 95.359375 219.480469 94.925781 218.832031 C 92.242188 214.796875 89.554688 210.761719 86.871094 206.734375 C 86.449219 206.089844 86.714844 205.070312 87.460938 204.480469 C 90.355469 202.203125 93.269531 199.933594 96.195312 197.683594 C 96.964844 197.09375 97.960938 197.132812 98.410156 197.753906 C 101.25 201.664062 104.09375 205.578125 106.933594 209.488281 Z M 78.386719 232.285156 C 78.78125 232.960938 78.480469 234.035156 77.714844 234.679688 C 74.78125 237.152344 71.867188 239.636719 68.984375 242.148438 C 68.222656 242.808594 67.3125 242.773438 66.9375 242.074219 C 64.621094 237.734375 62.300781 233.398438 59.980469 229.0625 C 59.609375 228.375 59.882812 227.300781 60.605469 226.671875 C 63.355469 224.277344 66.132812 221.90625 68.933594 219.546875 C 69.65625 218.941406 70.585938 218.992188 70.976562 219.65625 C 73.445312 223.867188 75.914062 228.074219 78.386719 232.285156 Z M 51.300781 256.238281 C 51.636719 256.972656 51.328125 258.113281 50.597656 258.804688 C 47.84375 261.410156 45.117188 264.042969 42.425781 266.695312 C 41.714844 267.398438 40.878906 267.359375 40.5625 266.609375 C 38.585938 261.957031 36.609375 257.300781 34.632812 252.644531 C 34.320312 251.902344 34.609375 250.746094 35.285156 250.082031 C 37.851562 247.542969 40.449219 245.035156 43.078125 242.554688 C 43.765625 241.894531 44.613281 241.960938 44.949219 242.675781 C 47.066406 247.199219 49.183594 251.722656 51.300781 256.238281 Z M 26.058594 281.664062 C 26.347656 282.445312 26.035156 283.675781 25.367188 284.40625 C 22.828125 287.183594 20.324219 289.992188 17.863281 292.832031 C 17.214844 293.585938 16.472656 293.539062 16.203125 292.730469 C 14.546875 287.738281 12.886719 282.742188 11.226562 277.746094 C 10.964844 276.957031 11.25 275.710938 11.863281 275 C 14.214844 272.292969 16.597656 269.617188 19.015625 266.964844 C 19.65625 266.265625 20.414062 266.335938 20.695312 267.105469 C 22.484375 271.960938 24.269531 276.8125 26.058594 281.664062 Z M -33.171875 182.132812 C -32.933594 182.96875 -33.066406 184.082031 -33.480469 184.621094 C -35.042969 186.660156 -36.570312 188.730469 -38.074219 190.820312 C -38.464844 191.367188 -38.960938 191.109375 -39.179688 190.25 C -40.554688 184.886719 -41.929688 179.523438 -43.300781 174.164062 C -43.523438 173.304688 -43.398438 172.1875 -43.039062 171.683594 C -41.640625 169.730469 -40.214844 167.804688 -38.757812 165.902344 C -38.378906 165.40625 -37.875 165.675781 -37.636719 166.515625 C -36.148438 171.714844 -34.65625 176.925781 -33.171875 182.132812 Z M 3.042969 308.871094 C 3.285156 309.710938 2.996094 311.019531 2.394531 311.808594 C 0.109375 314.792969 -2.128906 317.8125 -4.320312 320.875 C -4.890625 321.664062 -5.539062 321.621094 -5.761719 320.757812 C -7.132812 315.394531 -8.503906 310.035156 -9.878906 304.671875 C -10.097656 303.824219 -9.828125 302.488281 -9.289062 301.730469 C -7.199219 298.816406 -5.0625 295.9375 -2.886719 293.085938 C -2.316406 292.339844 -1.652344 292.425781 -1.417969 293.25 C 0.0703125 298.457031 1.558594 303.664062 3.042969 308.871094 Z M -64.246094 422.554688 C -65.035156 427.171875 -65.933594 426.824219 -66.382812 421.691406 C -69.710938 383.566406 -73.042969 345.441406 -76.371094 307.3125 C -76.8125 302.175781 -76.777344 295.179688 -76.195312 291.769531 C -69.96875 255.347656 -56.164062 224.949219 -37.433594 198.453125 C -35.675781 195.972656 -33.375 197.035156 -32.355469 200.773438 C -24.808594 228.691406 -17.265625 256.609375 -9.71875 284.53125 C -8.699219 288.273438 -9.859375 293.972656 -12.230469 297.328125 C -37.367188 332.878906 -55.894531 373.679688 -64.246094 422.554688 Z M -17.34375 338.148438 C -17.144531 339.050781 -17.414062 340.464844 -17.929688 341.308594 C -19.914062 344.53125 -21.847656 347.792969 -23.726562 351.101562 C -24.226562 351.96875 -24.765625 351.917969 -24.945312 350.988281 C -26.070312 345.234375 -27.191406 339.480469 -28.3125 333.722656 C -28.488281 332.808594 -28.261719 331.382812 -27.792969 330.554688 C -26 327.40625 -24.15625 324.292969 -22.261719 321.21875 C -21.769531 320.417969 -21.199219 320.5 -21.007812 321.386719 C -19.785156 326.972656 -18.5625 332.5625 -17.34375 338.148438 Z M -34.722656 369.816406 C -34.558594 370.777344 -34.792969 372.316406 -35.222656 373.230469 C -36.863281 376.722656 -38.453125 380.257812 -39.980469 383.839844 C -40.378906 384.78125 -40.828125 384.742188 -40.972656 383.746094 C -41.886719 377.566406 -42.800781 371.382812 -43.714844 365.199219 C -43.859375 364.222656 -43.671875 362.675781 -43.289062 361.773438 C -41.832031 358.359375 -40.316406 354.988281 -38.753906 351.660156 C -38.339844 350.785156 -37.871094 350.859375 -37.710938 351.8125 C -36.714844 357.8125 -35.71875 363.8125 -34.722656 369.816406 Z M -48.714844 404.167969 C -48.582031 405.210938 -48.753906 406.863281 -49.085938 407.867188 C -50.351562 411.65625 -51.550781 415.496094 -52.683594 419.390625 C -52.988281 420.417969 -53.320312 420.382812 -53.441406 419.3125 C -54.195312 412.667969 -54.945312 406.019531 -55.699219 399.378906 C -55.816406 398.324219 -55.691406 396.652344 -55.402344 395.671875 C -54.320312 391.957031 -53.175781 388.296875 -51.972656 384.683594 C -51.65625 383.734375 -51.289062 383.804688 -51.15625 384.828125 C -50.34375 391.273438 -49.527344 397.722656 -48.714844 404.167969 Z M -58.9375 441.539062 C -58.824219 442.65625 -58.917969 444.433594 -59.140625 445.523438 C -59.988281 449.652344 -60.757812 453.835938 -61.460938 458.082031 C -61.644531 459.179688 -61.871094 459.15625 -61.976562 458.003906 C -62.617188 450.859375 -63.257812 443.707031 -63.898438 436.554688 C -64 435.421875 -63.945312 433.609375 -63.773438 432.558594 C -63.101562 428.519531 -62.363281 424.523438 -61.558594 420.585938 C -61.347656 419.554688 -61.082031 419.636719 -60.976562 420.734375 C -60.296875 427.671875 -59.617188 434.601562 -58.9375 441.539062 Z M -79.488281 262.511719 C -79.59375 261.359375 -79.585938 259.855469 -79.464844 259.152344 C -79.019531 256.449219 -78.523438 253.78125 -77.988281 251.148438 C -77.847656 250.460938 -77.644531 250.800781 -77.53125 251.914062 C -76.851562 258.847656 -76.171875 265.785156 -75.492188 272.71875 C -75.382812 273.839844 -75.417969 275.335938 -75.570312 276.082031 C -76.144531 278.90625 -76.675781 281.769531 -77.15625 284.667969 C -77.28125 285.425781 -77.460938 285.109375 -77.566406 283.960938 C -78.207031 276.808594 -78.847656 269.660156 -79.488281 262.511719 Z M -73.996094 237.605469 C -74.117188 236.539062 -74.058594 235.144531 -73.871094 234.488281 C -73.148438 232.003906 -72.382812 229.5625 -71.578125 227.140625 C -71.367188 226.503906 -71.085938 226.824219 -70.953125 227.859375 C -70.140625 234.308594 -69.328125 240.753906 -68.515625 247.203125 C -68.382812 248.242188 -68.464844 249.644531 -68.691406 250.324219 C -69.554688 252.914062 -70.378906 255.546875 -71.152344 258.207031 C -71.355469 258.90625 -71.621094 258.613281 -71.738281 257.542969 C -72.492188 250.894531 -73.242188 244.25 -73.996094 237.605469 Z M -65.96875 214.714844 C -66.113281 213.714844 -66.027344 212.421875 -65.769531 211.828125 C -64.796875 209.542969 -63.785156 207.285156 -62.738281 205.066406 C -62.460938 204.480469 -62.105469 204.777344 -61.945312 205.746094 C -60.949219 211.742188 -59.953125 217.746094 -58.957031 223.742188 C -58.800781 224.714844 -58.914062 226.007812 -59.207031 226.636719 C -60.332031 229.023438 -61.417969 231.441406 -62.460938 233.890625 C -62.738281 234.535156 -63.078125 234.25 -63.226562 233.257812 C -64.140625 227.074219 -65.054688 220.894531 -65.96875 214.714844 Z M -55.652344 193.625 C -55.832031 192.699219 -55.726562 191.511719 -55.410156 190.957031 C -54.210938 188.847656 -52.980469 186.765625 -51.714844 184.710938 C -51.386719 184.179688 -50.953125 184.460938 -50.757812 185.359375 C -49.535156 190.949219 -48.3125 196.535156 -47.089844 202.125 C -46.898438 203.027344 -47.023438 204.222656 -47.378906 204.800781 C -48.734375 207.003906 -50.058594 209.238281 -51.347656 211.496094 C -51.6875 212.097656 -52.101562 211.816406 -52.28125 210.890625 C -53.40625 205.136719 -54.527344 199.382812 -55.652344 193.625 Z M -29.164062 156.125 C -29.429688 155.320312 -29.308594 154.285156 -28.894531 153.808594 C -27.328125 151.996094 -25.730469 150.207031 -24.113281 148.433594 C -23.6875 147.972656 -23.105469 148.21875 -22.820312 149 C -21.03125 153.851562 -19.246094 158.703125 -17.457031 163.554688 C -17.167969 164.335938 -17.3125 165.378906 -17.765625 165.882812 C -19.503906 167.777344 -21.214844 169.703125 -22.898438 171.640625 C -23.339844 172.152344 -23.917969 171.917969 -24.183594 171.113281 C -25.84375 166.117188 -27.5 161.125 -29.164062 156.125 Z M -13.484375 139.308594 C -13.800781 138.558594 -13.6875 137.589844 -13.238281 137.144531 C -11.519531 135.453125 -9.785156 133.777344 -8.027344 132.113281 C -7.566406 131.675781 -6.914062 131.914062 -6.574219 132.636719 C -4.457031 137.152344 -2.339844 141.675781 -0.222656 146.195312 C 0.117188 146.925781 -0.0117188 147.894531 -0.507812 148.367188 C -2.390625 150.148438 -4.257812 151.949219 -6.097656 153.765625 C -6.585938 154.25 -7.234375 154.023438 -7.554688 153.277344 C -9.53125 148.621094 -11.507812 143.964844 -13.484375 139.308594 Z M 3.496094 123.511719 C 3.121094 122.8125 3.207031 121.917969 3.695312 121.496094 C 5.53125 119.894531 7.386719 118.308594 9.257812 116.738281 C 9.746094 116.332031 10.46875 116.53125 10.863281 117.214844 C 13.332031 121.421875 15.800781 125.628906 18.273438 129.839844 C 18.671875 130.511719 18.558594 131.429688 18.039062 131.863281 C 16.03125 133.554688 14.039062 135.253906 12.066406 136.972656 C 11.546875 137.425781 10.828125 137.222656 10.457031 136.523438 C 8.136719 132.1875 5.816406 127.851562 3.496094 123.511719 Z M 21.511719 108.550781 C 21.082031 107.90625 21.148438 107.050781 21.648438 106.664062 C 23.582031 105.136719 25.53125 103.621094 27.488281 102.113281 C 28 101.71875 28.785156 101.902344 29.242188 102.542969 C 32.082031 106.449219 34.925781 110.363281 37.765625 114.273438 C 38.222656 114.90625 38.152344 115.753906 37.597656 116.179688 C 35.496094 117.792969 33.410156 119.417969 31.332031 121.058594 C 30.796875 121.480469 30.003906 121.300781 29.566406 120.652344 C 26.882812 116.617188 24.199219 112.585938 21.511719 108.550781 Z M 40.324219 94.226562 C 39.832031 93.625 39.863281 92.828125 40.390625 92.4375 C 42.394531 90.972656 44.402344 89.507812 46.417969 88.054688 C 46.949219 87.667969 47.804688 87.828125 48.320312 88.410156 C 51.546875 92.039062 54.773438 95.65625 58 99.285156 C 58.519531 99.867188 58.480469 100.683594 57.910156 101.09375 C 55.746094 102.652344 53.589844 104.21875 51.445312 105.796875 C 50.878906 106.214844 50.015625 106.054688 49.523438 105.457031 C 46.457031 101.710938 43.390625 97.96875 40.324219 94.226562 Z M 59.683594 80.335938 C 59.132812 79.777344 59.121094 79.015625 59.660156 78.640625 C 61.703125 77.207031 63.75 75.777344 65.800781 74.351562 C 66.34375 73.976562 67.246094 74.105469 67.832031 74.636719 C 71.457031 77.984375 75.078125 81.332031 78.703125 84.679688 C 79.285156 85.21875 79.285156 85.984375 78.707031 86.390625 C 76.507812 87.921875 74.308594 89.457031 72.117188 90.992188 C 71.539062 91.398438 70.617188 91.277344 70.058594 90.71875 C 66.601562 87.257812 63.144531 83.792969 59.683594 80.335938 Z M 79.351562 66.675781 C 78.734375 66.160156 78.667969 65.453125 79.214844 65.078125 C 81.273438 63.65625 83.339844 62.234375 85.402344 60.808594 C 85.933594 60.441406 86.902344 60.535156 87.546875 61.027344 C 91.570312 64.097656 95.589844 67.171875 99.609375 70.238281 C 100.257812 70.734375 100.3125 71.46875 99.738281 71.863281 C 97.523438 73.382812 95.308594 74.914062 93.097656 76.4375 C 92.515625 76.835938 91.539062 76.742188 90.921875 76.230469 C 87.066406 73.042969 83.210938 69.859375 79.351562 66.675781 Z M 142.527344 48.726562 C 145.074219 46.878906 149.902344 46.816406 153.3125 48.59375 C 178.648438 61.941406 203.980469 75.28125 229.3125 88.621094 C 232.726562 90.40625 232.714844 93.902344 229.265625 96.402344 C 192.730469 122.890625 154.414062 147.976562 117.878906 174.472656 C 114.429688 176.96875 109.882812 176.859375 107.710938 174.207031 C 91.425781 154.496094 75.140625 134.785156 58.859375 115.074219 C 56.683594 112.417969 56.972656 108.753906 59.523438 106.90625 C 86.746094 87.15625 115.300781 68.46875 142.527344 48.726562 Z M 99.066406 53.058594 C 98.375 52.59375 98.273438 51.910156 98.804688 51.539062 C 100.859375 50.113281 102.910156 48.679688 104.953125 47.238281 C 105.492188 46.867188 106.492188 46.925781 107.207031 47.375 C 111.625 50.171875 116.046875 52.964844 120.464844 55.757812 C 121.175781 56.207031 121.292969 56.902344 120.714844 57.300781 C 118.519531 58.84375 116.320312 60.378906 114.117188 61.910156 C 113.546875 62.308594 112.515625 62.261719 111.828125 61.789062 C 107.574219 58.878906 103.320312 55.96875 99.066406 53.058594 Z M 137.652344 25.167969 C 136.839844 24.792969 136.613281 24.164062 137.125 23.769531 C 139.082031 22.265625 141.027344 20.757812 142.957031 19.234375 C 143.464844 18.828125 144.550781 18.789062 145.386719 19.144531 C 150.578125 21.371094 155.769531 23.59375 160.964844 25.816406 C 161.800781 26.175781 162.035156 26.820312 161.492188 27.25 C 159.417969 28.882812 157.332031 30.507812 155.234375 32.117188 C 154.679688 32.546875 153.566406 32.582031 152.757812 32.203125 C 147.722656 29.859375 142.6875 27.511719 137.652344 25.167969 Z M 156.035156 10.488281 C 155.164062 10.15625 154.863281 9.5625 155.355469 9.152344 C 157.226562 7.574219 159.082031 5.988281 160.917969 4.386719 C 161.394531 3.972656 162.511719 3.878906 163.402344 4.1875 C 168.960938 6.109375 174.515625 8.03125 180.074219 9.953125 C 180.96875 10.261719 181.277344 10.882812 180.765625 11.328125 C 178.792969 13.042969 176.800781 14.742188 174.792969 16.429688 C 174.265625 16.875 173.128906 16.957031 172.257812 16.632812 C 166.851562 14.582031 161.441406 12.535156 156.035156 10.488281 Z M 173.472656 -4.933594 C 172.546875 -5.210938 172.179688 -5.789062 172.632812 -6.222656 C 174.394531 -7.886719 176.132812 -9.5625 177.847656 -11.261719 C 178.300781 -11.707031 179.425781 -11.859375 180.375 -11.597656 C 186.277344 -10 192.175781 -8.398438 198.078125 -6.796875 C 199.03125 -6.542969 199.410156 -5.945312 198.929688 -5.46875 C 197.085938 -3.648438 195.222656 -1.847656 193.332031 -0.0585938 C 192.84375 0.402344 191.683594 0.554688 190.753906 0.277344 C 184.992188 -1.457031 179.234375 -3.199219 173.472656 -4.933594 Z M 189.71875 -21.296875 C 188.738281 -21.523438 188.304688 -22.089844 188.726562 -22.550781 C 190.34375 -24.324219 191.9375 -26.113281 193.507812 -27.925781 C 193.921875 -28.394531 195.0625 -28.628906 196.058594 -28.425781 C 202.277344 -27.164062 208.496094 -25.90625 214.714844 -24.640625 C 215.71875 -24.441406 216.171875 -23.859375 215.726562 -23.34375 C 214.046875 -21.402344 212.335938 -19.480469 210.597656 -17.582031 C 210.140625 -17.082031 208.964844 -16.863281 207.988281 -17.085938 C 201.894531 -18.492188 195.804688 -19.894531 189.71875 -21.296875 Z M 204.527344 -38.808594 C 203.5 -38.976562 202.984375 -39.515625 203.367188 -40.019531 C 204.820312 -41.921875 206.25 -43.84375 207.644531 -45.792969 C 208.011719 -46.300781 209.152344 -46.609375 210.199219 -46.464844 C 216.703125 -45.570312 223.210938 -44.675781 229.710938 -43.78125 C 230.761719 -43.636719 231.296875 -43.070312 230.894531 -42.515625 C 229.398438 -40.429688 227.871094 -38.367188 226.308594 -36.324219 C 225.902344 -35.789062 224.726562 -35.488281 223.695312 -35.65625 C 217.304688 -36.707031 210.914062 -37.757812 204.527344 -38.808594 Z M 217.652344 -57.660156 C 216.582031 -57.769531 215.992188 -58.289062 216.324219 -58.824219 C 217.585938 -60.882812 218.824219 -62.964844 220.019531 -65.070312 C 220.332031 -65.617188 221.460938 -66.003906 222.546875 -65.925781 C 229.300781 -65.425781 236.058594 -64.925781 242.8125 -64.425781 C 243.898438 -64.34375 244.511719 -63.792969 244.175781 -63.203125 C 242.886719 -60.9375 241.570312 -58.710938 240.210938 -56.503906 C 239.855469 -55.921875 238.691406 -55.546875 237.621094 -55.65625 C 230.964844 -56.324219 224.308594 -56.988281 217.652344 -57.660156 Z M 228.839844 -78.042969 C 227.730469 -78.082031 227.074219 -78.589844 227.34375 -79.171875 C 228.394531 -81.402344 229.40625 -83.65625 230.378906 -85.941406 C 230.636719 -86.539062 231.742188 -87.019531 232.863281 -87.007812 C 239.824219 -86.929688 246.789062 -86.855469 253.75 -86.78125 C 254.871094 -86.769531 255.566406 -86.242188 255.289062 -85.59375 C 254.246094 -83.140625 253.160156 -80.722656 252.035156 -78.332031 C 251.746094 -77.707031 250.59375 -77.230469 249.488281 -77.273438 C 242.605469 -77.53125 235.722656 -77.789062 228.839844 -78.042969 Z M 237.847656 -100.160156 C 236.710938 -100.125 235.972656 -100.621094 236.1875 -101.257812 C 236.992188 -103.675781 237.753906 -106.125 238.480469 -108.605469 C 238.671875 -109.261719 239.742188 -109.84375 240.890625 -109.90625 C 248.015625 -110.296875 255.144531 -110.6875 262.269531 -111.074219 C 263.414062 -111.136719 264.183594 -110.613281 263.980469 -109.910156 C 263.203125 -107.253906 262.382812 -104.621094 261.523438 -102.027344 C 261.289062 -101.339844 260.183594 -100.769531 259.042969 -100.738281 C 251.976562 -100.542969 244.914062 -100.347656 237.847656 -100.160156 Z M 244.421875 -124.207031 C 243.261719 -124.097656 242.457031 -124.574219 242.597656 -125.261719 C 243.136719 -127.894531 243.628906 -130.558594 244.074219 -133.265625 C 244.1875 -133.972656 245.214844 -134.671875 246.382812 -134.816406 C 253.617188 -135.710938 260.859375 -136.597656 268.09375 -137.492188 C 269.257812 -137.636719 270.109375 -137.132812 269.984375 -136.363281 C 269.503906 -133.46875 268.972656 -130.609375 268.398438 -127.789062 C 268.246094 -127.042969 267.179688 -126.351562 266.015625 -126.242188 C 258.816406 -125.566406 251.621094 -124.886719 244.421875 -124.207031 Z M -81.511719 259.695312 C -75.277344 333.457031 -69.039062 407.222656 -62.804688 480.988281 C -22.730469 157.285156 416.570312 150.679688 456.644531 -173.023438 C 383.382812 -162.398438 310.125 -151.777344 236.863281 -141.152344 C 212.304688 57.242188 -56.949219 61.292969 -81.511719 259.695312 " fill-opacity="1" fill-rule="nonzero"/></g></g></g><g clip-path="url(#6fbbab508e)"><g clip-path="url(#7941f3583b)"><g clip-path="url(#0e93ed9e3b)"><path fill="#f6f8f9" d="M 1630.671875 419.144531 C 1635.8125 418.449219 1639.449219 421.710938 1638.65625 426.320312 C 1630.304688 475.195312 1611.78125 516 1586.644531 551.546875 C 1584.269531 554.898438 1578.578125 557 1574.007812 556.304688 C 1539.941406 551.171875 1505.867188 546.039062 1471.796875 540.902344 C 1467.234375 540.199219 1464.992188 537.65625 1466.75 535.179688 C 1485.480469 508.691406 1499.285156 478.285156 1505.511719 441.863281 C 1506.09375 438.453125 1510.660156 435.0625 1515.8125 434.363281 C 1554.101562 429.289062 1592.382812 424.21875 1630.671875 419.144531 Z M 1671.53125 418.769531 C 1672.695312 418.621094 1673.503906 419.421875 1673.316406 420.539062 C 1672.613281 424.773438 1671.839844 428.957031 1671 433.082031 C 1670.773438 434.171875 1669.640625 435.140625 1668.488281 435.25 C 1661.289062 435.929688 1654.09375 436.601562 1646.898438 437.28125 C 1645.753906 437.394531 1644.988281 436.640625 1645.195312 435.601562 C 1646 431.667969 1646.738281 427.683594 1647.40625 423.644531 C 1647.582031 422.582031 1648.667969 421.589844 1649.820312 421.445312 C 1657.058594 420.554688 1664.292969 419.664062 1671.53125 418.769531 Z M 1662.996094 457.460938 C 1664.140625 457.402344 1664.84375 458.1875 1664.546875 459.214844 C 1663.40625 463.109375 1662.203125 466.945312 1660.945312 470.738281 C 1660.613281 471.738281 1659.410156 472.574219 1658.273438 472.605469 C 1651.207031 472.792969 1644.144531 472.984375 1637.078125 473.179688 C 1635.957031 473.207031 1635.292969 472.460938 1635.613281 471.511719 C 1636.816406 467.894531 1637.960938 464.230469 1639.039062 460.515625 C 1639.328125 459.542969 1640.488281 458.691406 1641.621094 458.628906 C 1648.746094 458.238281 1655.867188 457.851562 1662.996094 457.460938 Z M 1650.523438 493.039062 C 1651.640625 493.050781 1652.242188 493.816406 1651.835938 494.765625 C 1650.3125 498.351562 1648.71875 501.890625 1647.074219 505.382812 C 1646.648438 506.292969 1645.386719 507 1644.28125 506.964844 C 1637.398438 506.707031 1630.519531 506.449219 1623.632812 506.191406 C 1622.546875 506.152344 1621.984375 505.40625 1622.382812 504.542969 C 1623.957031 501.210938 1625.46875 497.835938 1626.929688 494.417969 C 1627.3125 493.523438 1628.527344 492.808594 1629.636719 492.816406 C 1636.597656 492.890625 1643.5625 492.964844 1650.523438 493.039062 Z M 1634.503906 525.785156 C 1635.589844 525.867188 1636.078125 526.648438 1635.589844 527.5 C 1633.710938 530.808594 1631.773438 534.070312 1629.789062 537.292969 C 1629.269531 538.148438 1627.972656 538.730469 1626.898438 538.628906 C 1620.246094 537.957031 1613.589844 537.289062 1606.933594 536.621094 C 1605.878906 536.515625 1605.40625 535.785156 1605.902344 534.976562 C 1607.792969 531.898438 1609.640625 528.785156 1611.433594 525.636719 C 1611.898438 524.820312 1613.167969 524.207031 1614.242188 524.28125 C 1620.996094 524.785156 1627.75 525.285156 1634.503906 525.785156 Z M 1615.320312 556.019531 C 1616.359375 556.167969 1616.757812 556.9375 1616.179688 557.746094 C 1613.984375 560.796875 1611.746094 563.816406 1609.46875 566.800781 C 1608.863281 567.585938 1607.535156 568.085938 1606.507812 567.917969 C 1600.121094 566.867188 1593.726562 565.816406 1587.335938 564.765625 C 1586.324219 564.59375 1585.957031 563.851562 1586.527344 563.105469 C 1588.703125 560.261719 1590.835938 557.378906 1592.921875 554.464844 C 1593.472656 553.699219 1594.773438 553.191406 1595.808594 553.332031 C 1602.3125 554.226562 1608.816406 555.125 1615.320312 556.019531 Z M 1568.933594 562.992188 C 1573.460938 563.730469 1575.105469 566.976562 1572.523438 570.15625 C 1545.128906 603.910156 1511.757812 632.925781 1475.976562 660.019531 C 1472.601562 662.574219 1467.019531 663.210938 1463.566406 661.464844 C 1437.710938 648.503906 1411.863281 635.546875 1386.007812 622.589844 C 1382.550781 620.839844 1381.785156 617.898438 1384.28125 616.011719 C 1410.945312 595.820312 1435.8125 574.203125 1456.226562 549.050781 C 1458.136719 546.691406 1463.320312 545.359375 1467.855469 546.09375 C 1501.546875 551.726562 1535.242188 557.355469 1568.933594 562.992188 Z M 1593.355469 584.046875 C 1594.359375 584.246094 1594.648438 585.023438 1594 585.769531 C 1591.535156 588.613281 1589.035156 591.417969 1586.496094 594.199219 C 1585.832031 594.929688 1584.476562 595.34375 1583.5 595.113281 C 1577.410156 593.707031 1571.324219 592.300781 1565.230469 590.902344 C 1564.265625 590.679688 1563.992188 589.921875 1564.625 589.226562 C 1567.042969 586.582031 1569.429688 583.898438 1571.773438 581.195312 C 1572.394531 580.480469 1573.710938 580.066406 1574.699219 580.261719 C 1580.917969 581.527344 1587.136719 582.78125 1593.355469 584.046875 Z M 1568.992188 610.179688 C 1569.9375 610.433594 1570.144531 611.210938 1569.4375 611.90625 C 1566.742188 614.566406 1564.015625 617.199219 1561.257812 619.8125 C 1560.539062 620.492188 1559.191406 620.816406 1558.261719 620.539062 C 1552.5 618.804688 1546.742188 617.070312 1540.976562 615.328125 C 1540.070312 615.054688 1539.875 614.296875 1540.558594 613.648438 C 1543.1875 611.160156 1545.792969 608.652344 1548.359375 606.113281 C 1549.035156 605.449219 1550.351562 605.121094 1551.285156 605.375 C 1557.191406 606.980469 1563.089844 608.578125 1568.992188 610.179688 Z M 1542.621094 634.710938 C 1543.519531 635.015625 1543.632812 635.804688 1542.882812 636.457031 C 1539.996094 638.96875 1537.089844 641.457031 1534.152344 643.925781 C 1533.378906 644.578125 1532.046875 644.828125 1531.175781 644.496094 C 1525.769531 642.449219 1520.359375 640.398438 1514.949219 638.347656 C 1514.09375 638.027344 1513.976562 637.257812 1514.710938 636.640625 C 1517.507812 634.292969 1520.285156 631.917969 1523.039062 629.523438 C 1523.746094 628.90625 1525.074219 628.636719 1525.953125 628.945312 C 1531.507812 630.863281 1537.066406 632.785156 1542.621094 634.710938 Z M 1514.636719 657.949219 C 1515.472656 658.300781 1515.503906 659.109375 1514.703125 659.738281 C 1511.675781 662.128906 1508.625 664.5 1505.558594 666.855469 C 1504.75 667.476562 1503.425781 667.679688 1502.617188 667.300781 C 1497.578125 664.953125 1492.546875 662.609375 1487.507812 660.265625 C 1486.710938 659.882812 1486.675781 659.101562 1487.445312 658.507812 C 1490.375 656.257812 1493.28125 654 1496.167969 651.722656 C 1496.929688 651.128906 1498.230469 650.925781 1499.054688 651.277344 C 1504.25 653.5 1509.441406 655.722656 1514.636719 657.949219 Z M 1368.277344 619.019531 C 1369.054688 619.429688 1369.222656 620.09375 1368.65625 620.507812 C 1366.511719 622.082031 1364.355469 623.648438 1362.191406 625.210938 C 1361.621094 625.621094 1360.542969 625.617188 1359.800781 625.191406 C 1355.148438 622.558594 1350.5 619.929688 1345.847656 617.296875 C 1345.101562 616.875 1344.933594 616.222656 1345.464844 615.839844 C 1347.484375 614.382812 1349.492188 612.921875 1351.492188 611.453125 C 1352.019531 611.070312 1353.070312 611.078125 1353.84375 611.480469 C 1358.65625 613.996094 1363.46875 616.507812 1368.277344 619.019531 Z M 1485.40625 680.207031 C 1486.183594 680.605469 1486.140625 681.4375 1485.316406 682.039062 C 1482.175781 684.34375 1479.027344 686.636719 1475.867188 688.917969 C 1475.03125 689.519531 1473.742188 689.660156 1472.992188 689.242188 C 1468.339844 686.609375 1463.691406 683.980469 1459.042969 681.347656 C 1458.300781 680.929688 1458.347656 680.117188 1459.136719 679.542969 C 1462.152344 677.367188 1465.15625 675.179688 1468.152344 672.988281 C 1468.941406 672.410156 1470.207031 672.269531 1470.976562 672.664062 C 1475.785156 675.179688 1480.597656 677.691406 1485.40625 680.207031 Z M 1455.320312 701.796875 C 1456.035156 702.242188 1455.9375 703.089844 1455.089844 703.679688 C 1451.886719 705.933594 1448.667969 708.179688 1445.449219 710.421875 C 1444.609375 711 1443.359375 711.09375 1442.671875 710.628906 C 1438.421875 707.71875 1434.164062 704.808594 1429.914062 701.898438 C 1429.234375 701.441406 1429.335938 700.597656 1430.132812 700.042969 C 1433.207031 697.90625 1436.269531 695.765625 1439.328125 693.617188 C 1440.132812 693.058594 1441.363281 692.964844 1442.0625 693.414062 C 1446.480469 696.207031 1450.898438 699 1455.320312 701.796875 Z M 1424.777344 723.007812 C 1425.425781 723.5 1425.261719 724.382812 1424.417969 724.960938 C 1421.183594 727.191406 1417.949219 729.421875 1414.710938 731.652344 C 1413.859375 732.238281 1412.671875 732.292969 1412.050781 731.78125 C 1408.195312 728.589844 1404.339844 725.40625 1400.484375 722.222656 C 1399.871094 721.714844 1400.019531 720.847656 1400.828125 720.289062 C 1403.914062 718.160156 1407 716.035156 1410.085938 713.910156 C 1410.886719 713.359375 1412.074219 713.308594 1412.714844 713.796875 C 1416.734375 716.867188 1420.757812 719.933594 1424.777344 723.007812 Z M 1394.15625 744.152344 C 1394.742188 744.695312 1394.523438 745.617188 1393.675781 746.203125 C 1390.457031 748.441406 1387.246094 750.683594 1384.042969 752.933594 C 1383.199219 753.523438 1382.054688 753.554688 1381.5 752.996094 C 1378.039062 749.539062 1374.582031 746.074219 1371.125 742.613281 C 1370.578125 742.058594 1370.777344 741.152344 1371.582031 740.578125 C 1374.640625 738.4375 1377.703125 736.300781 1380.769531 734.167969 C 1381.578125 733.605469 1382.714844 733.585938 1383.289062 734.113281 C 1386.910156 737.460938 1390.535156 740.808594 1394.15625 744.152344 Z M 1363.839844 765.546875 C 1364.363281 766.128906 1364.101562 767.09375 1363.269531 767.695312 C 1360.105469 769.976562 1356.953125 772.269531 1353.816406 774.574219 C 1352.992188 775.175781 1351.914062 775.183594 1351.421875 774.578125 C 1348.355469 770.835938 1345.292969 767.09375 1342.222656 763.351562 C 1341.738281 762.753906 1341.980469 761.789062 1342.765625 761.214844 C 1345.757812 759.023438 1348.761719 756.835938 1351.777344 754.65625 C 1352.570312 754.082031 1353.640625 754.09375 1354.15625 754.671875 C 1357.386719 758.292969 1360.613281 761.917969 1363.839844 765.546875 Z M 1327.992188 757.375 C 1330.117188 760.074219 1329.082031 764.308594 1325.707031 766.867188 C 1289.921875 793.957031 1256.554688 822.96875 1229.160156 856.722656 C 1226.574219 859.910156 1223.679688 859.542969 1222.625 855.851562 C 1214.703125 828.429688 1206.777344 801.007812 1198.855469 773.585938 C 1197.796875 769.894531 1198.449219 764.945312 1200.359375 762.59375 C 1220.773438 737.441406 1245.636719 715.820312 1272.304688 695.628906 C 1274.796875 693.742188 1278.574219 694.40625 1280.699219 697.089844 C 1296.464844 717.1875 1312.230469 737.285156 1327.992188 757.375 Z M 1334.203125 787.496094 C 1334.660156 788.125 1334.386719 789.132812 1333.578125 789.757812 C 1330.503906 792.117188 1327.449219 794.492188 1324.417969 796.882812 C 1323.628906 797.503906 1322.628906 797.484375 1322.195312 796.839844 C 1319.511719 792.804688 1316.824219 788.769531 1314.140625 784.738281 C 1313.71875 784.097656 1313.984375 783.074219 1314.730469 782.488281 C 1317.625 780.207031 1320.535156 777.9375 1323.464844 775.691406 C 1324.234375 775.101562 1325.226562 775.140625 1325.679688 775.757812 C 1328.519531 779.671875 1331.363281 783.585938 1334.203125 787.496094 Z M 1305.652344 810.289062 C 1306.050781 810.964844 1305.746094 812.042969 1304.984375 812.6875 C 1302.046875 815.15625 1299.136719 817.644531 1296.25 820.15625 C 1295.492188 820.8125 1294.582031 820.777344 1294.207031 820.078125 C 1291.886719 815.738281 1289.566406 811.402344 1287.246094 807.070312 C 1286.878906 806.378906 1287.152344 805.308594 1287.875 804.679688 C 1290.625 802.285156 1293.402344 799.910156 1296.199219 797.554688 C 1296.925781 796.945312 1297.855469 796.996094 1298.246094 797.660156 C 1300.714844 801.871094 1303.183594 806.082031 1305.652344 810.289062 Z M 1278.566406 834.246094 C 1278.90625 834.976562 1278.59375 836.121094 1277.867188 836.808594 C 1275.113281 839.417969 1272.386719 842.046875 1269.695312 844.703125 C 1268.984375 845.402344 1268.148438 845.367188 1267.832031 844.613281 C 1265.855469 839.960938 1263.878906 835.304688 1261.902344 830.648438 C 1261.589844 829.910156 1261.878906 828.753906 1262.554688 828.085938 C 1265.121094 825.550781 1267.71875 823.042969 1270.34375 820.558594 C 1271.035156 819.902344 1271.882812 819.96875 1272.21875 820.679688 C 1274.332031 825.203125 1276.449219 829.726562 1278.566406 834.246094 Z M 1253.328125 859.671875 C 1253.613281 860.449219 1253.304688 861.683594 1252.632812 862.414062 C 1250.097656 865.191406 1247.59375 867.996094 1245.132812 870.835938 C 1244.484375 871.589844 1243.738281 871.546875 1243.472656 870.738281 C 1241.8125 865.742188 1240.15625 860.75 1238.496094 855.75 C 1238.230469 854.960938 1238.519531 853.71875 1239.132812 853.003906 C 1241.480469 850.296875 1243.867188 847.621094 1246.285156 844.972656 C 1246.925781 844.269531 1247.683594 844.34375 1247.964844 845.113281 C 1249.753906 849.964844 1251.539062 854.816406 1253.328125 859.671875 Z M 1194.097656 760.136719 C 1194.335938 760.972656 1194.203125 762.085938 1193.789062 762.628906 C 1192.226562 764.667969 1190.695312 766.734375 1189.195312 768.824219 C 1188.804688 769.375 1188.308594 769.113281 1188.085938 768.253906 C 1186.710938 762.894531 1185.339844 757.527344 1183.96875 752.171875 C 1183.746094 751.308594 1183.871094 750.191406 1184.230469 749.6875 C 1185.628906 747.738281 1187.054688 745.8125 1188.511719 743.90625 C 1188.890625 743.410156 1189.394531 743.679688 1189.632812 744.519531 C 1191.121094 749.722656 1192.609375 754.929688 1194.097656 760.136719 Z M 1230.3125 886.878906 C 1230.554688 887.714844 1230.265625 889.023438 1229.660156 889.8125 C 1227.378906 892.796875 1225.140625 895.816406 1222.945312 898.878906 C 1222.378906 899.671875 1221.730469 899.625 1221.507812 898.761719 C 1220.136719 893.402344 1218.765625 888.042969 1217.390625 882.679688 C 1217.167969 881.828125 1217.4375 880.496094 1217.976562 879.738281 C 1220.070312 876.824219 1222.207031 873.945312 1224.382812 871.09375 C 1224.953125 870.347656 1225.617188 870.433594 1225.851562 871.253906 C 1227.335938 876.460938 1228.828125 881.671875 1230.3125 886.878906 Z M 1163.023438 1000.558594 C 1162.230469 1005.179688 1161.335938 1004.828125 1160.886719 999.695312 C 1157.558594 961.570312 1154.226562 923.445312 1150.898438 885.316406 C 1150.457031 880.183594 1150.492188 873.183594 1151.074219 869.777344 C 1157.300781 833.351562 1171.105469 802.953125 1189.835938 776.460938 C 1191.589844 773.980469 1193.894531 775.039062 1194.914062 778.777344 C 1202.457031 806.699219 1210.003906 834.613281 1217.550781 862.539062 C 1218.570312 866.277344 1217.410156 871.980469 1215.039062 875.335938 C 1189.898438 910.882812 1171.375 951.683594 1163.023438 1000.558594 Z M 1209.925781 916.152344 C 1210.125 917.058594 1209.855469 918.472656 1209.339844 919.316406 C 1207.355469 922.535156 1205.421875 925.800781 1203.539062 929.109375 C 1203.042969 929.972656 1202.503906 929.925781 1202.320312 928.996094 C 1201.199219 923.238281 1200.078125 917.484375 1198.953125 911.730469 C 1198.78125 910.8125 1199.003906 909.386719 1199.472656 908.5625 C 1201.269531 905.410156 1203.113281 902.296875 1205.007812 899.222656 C 1205.5 898.425781 1206.066406 898.503906 1206.261719 899.390625 C 1207.484375 904.980469 1208.703125 910.566406 1209.925781 916.152344 Z M 1192.546875 947.820312 C 1192.707031 948.78125 1192.476562 950.320312 1192.046875 951.238281 C 1190.402344 954.730469 1188.816406 958.261719 1187.289062 961.84375 C 1186.890625 962.785156 1186.441406 962.75 1186.296875 961.753906 C 1185.382812 955.570312 1184.46875 949.386719 1183.554688 943.207031 C 1183.410156 942.226562 1183.597656 940.679688 1183.980469 939.777344 C 1185.4375 936.363281 1186.949219 932.992188 1188.515625 929.664062 C 1188.929688 928.792969 1189.398438 928.867188 1189.558594 929.820312 C 1190.554688 935.820312 1191.550781 941.816406 1192.546875 947.820312 Z M 1178.554688 982.175781 C 1178.683594 983.214844 1178.515625 984.871094 1178.179688 985.871094 C 1176.917969 989.664062 1175.71875 993.503906 1174.585938 997.394531 C 1174.28125 998.421875 1173.945312 998.390625 1173.824219 997.316406 C 1173.074219 990.671875 1172.320312 984.027344 1171.570312 977.382812 C 1171.449219 976.332031 1171.578125 974.65625 1171.867188 973.675781 C 1172.949219 969.964844 1174.09375 966.300781 1175.296875 962.6875 C 1175.613281 961.738281 1175.980469 961.8125 1176.113281 962.832031 C 1176.925781 969.277344 1177.738281 975.726562 1178.554688 982.175781 Z M 1168.332031 1019.546875 C 1168.441406 1020.664062 1168.347656 1022.4375 1168.128906 1023.527344 C 1167.28125 1027.660156 1166.507812 1031.839844 1165.808594 1036.085938 C 1165.625 1037.1875 1165.398438 1037.164062 1165.292969 1036.011719 C 1164.652344 1028.863281 1164.011719 1021.714844 1163.371094 1014.5625 C 1163.269531 1013.425781 1163.324219 1011.613281 1163.496094 1010.566406 C 1164.167969 1006.523438 1164.90625 1002.53125 1165.710938 998.59375 C 1165.921875 997.558594 1166.1875 997.640625 1166.292969 998.742188 C 1166.972656 1005.679688 1167.652344 1012.609375 1168.332031 1019.546875 Z M 1147.78125 840.519531 C 1147.675781 839.363281 1147.683594 837.859375 1147.804688 837.15625 C 1148.25 834.457031 1148.746094 831.785156 1149.28125 829.152344 C 1149.421875 828.46875 1149.625 828.804688 1149.738281 829.921875 C 1150.414062 836.851562 1151.097656 843.789062 1151.777344 850.722656 C 1151.886719 851.84375 1151.851562 853.339844 1151.699219 854.089844 C 1151.125 856.914062 1150.59375 859.773438 1150.113281 862.675781 C 1149.988281 863.433594 1149.804688 863.117188 1149.703125 861.96875 C 1149.0625 854.816406 1148.417969 847.664062 1147.78125 840.519531 Z M 1153.273438 815.609375 C 1153.152344 814.542969 1153.207031 813.152344 1153.398438 812.496094 C 1154.121094 810.011719 1154.886719 807.566406 1155.691406 805.148438 C 1155.902344 804.507812 1156.183594 804.828125 1156.316406 805.863281 C 1157.128906 812.316406 1157.941406 818.761719 1158.753906 825.210938 C 1158.882812 826.246094 1158.804688 827.652344 1158.578125 828.328125 C 1157.714844 830.921875 1156.890625 833.550781 1156.117188 836.214844 C 1155.914062 836.914062 1155.648438 836.617188 1155.527344 835.550781 C 1154.777344 828.902344 1154.023438 822.257812 1153.273438 815.609375 Z M 1161.300781 792.71875 C 1161.152344 791.71875 1161.242188 790.429688 1161.496094 789.832031 C 1162.472656 787.546875 1163.480469 785.292969 1164.53125 783.070312 C 1164.808594 782.484375 1165.164062 782.785156 1165.324219 783.75 C 1166.320312 789.746094 1167.316406 795.75 1168.308594 801.746094 C 1168.46875 802.71875 1168.355469 804.015625 1168.0625 804.640625 C 1166.9375 807.027344 1165.851562 809.445312 1164.808594 811.898438 C 1164.53125 812.542969 1164.191406 812.253906 1164.042969 811.261719 C 1163.128906 805.078125 1162.214844 798.902344 1161.300781 792.71875 Z M 1171.617188 771.632812 C 1171.4375 770.707031 1171.539062 769.519531 1171.859375 768.960938 C 1173.058594 766.855469 1174.289062 764.769531 1175.554688 762.71875 C 1175.878906 762.183594 1176.316406 762.46875 1176.511719 763.367188 C 1177.734375 768.953125 1178.957031 774.539062 1180.179688 780.128906 C 1180.371094 781.03125 1180.242188 782.226562 1179.890625 782.804688 C 1178.53125 785.007812 1177.210938 787.242188 1175.921875 789.503906 C 1175.582031 790.101562 1175.167969 789.820312 1174.984375 788.898438 C 1173.863281 783.140625 1172.742188 777.386719 1171.617188 771.632812 Z M 1198.105469 734.128906 C 1197.839844 733.328125 1197.957031 732.289062 1198.375 731.8125 C 1199.941406 730.003906 1201.535156 728.210938 1203.15625 726.4375 C 1203.582031 725.976562 1204.164062 726.222656 1204.449219 727.003906 C 1206.238281 731.855469 1208.023438 736.707031 1209.8125 741.5625 C 1210.097656 742.339844 1209.957031 743.386719 1209.503906 743.886719 C 1207.765625 745.785156 1206.054688 747.707031 1204.371094 749.648438 C 1203.929688 750.15625 1203.351562 749.925781 1203.082031 749.117188 C 1201.425781 744.121094 1199.765625 739.128906 1198.105469 734.128906 Z M 1213.785156 717.3125 C 1213.46875 716.5625 1213.582031 715.597656 1214.03125 715.148438 C 1215.746094 713.457031 1217.484375 711.78125 1219.242188 710.117188 C 1219.699219 709.679688 1220.355469 709.917969 1220.695312 710.640625 C 1222.8125 715.160156 1224.929688 719.683594 1227.046875 724.199219 C 1227.382812 724.933594 1227.257812 725.898438 1226.761719 726.371094 C 1224.878906 728.152344 1223.011719 729.953125 1221.171875 731.769531 C 1220.683594 732.257812 1220.03125 732.027344 1219.714844 731.28125 C 1217.738281 726.625 1215.761719 721.96875 1213.785156 717.3125 Z M 1230.761719 701.515625 C 1230.390625 700.820312 1230.476562 699.921875 1230.960938 699.5 C 1232.800781 697.902344 1234.65625 696.3125 1236.527344 694.742188 C 1237.015625 694.335938 1237.738281 694.539062 1238.132812 695.21875 C 1240.601562 699.429688 1243.070312 703.632812 1245.539062 707.84375 C 1245.941406 708.519531 1245.828125 709.433594 1245.308594 709.871094 C 1243.300781 711.558594 1241.308594 713.261719 1239.335938 714.976562 C 1238.816406 715.433594 1238.097656 715.226562 1237.726562 714.527344 C 1235.40625 710.191406 1233.085938 705.859375 1230.761719 701.515625 Z M 1248.78125 686.558594 C 1248.347656 685.910156 1248.417969 685.054688 1248.917969 684.667969 C 1250.851562 683.144531 1252.796875 681.628906 1254.753906 680.121094 C 1255.269531 679.726562 1256.054688 679.910156 1256.507812 680.546875 C 1259.351562 684.457031 1262.191406 688.367188 1265.035156 692.277344 C 1265.492188 692.910156 1265.421875 693.761719 1264.867188 694.183594 C 1262.765625 695.796875 1260.675781 697.421875 1258.601562 699.0625 C 1258.066406 699.484375 1257.269531 699.308594 1256.835938 698.65625 C 1254.148438 694.625 1251.464844 690.589844 1248.78125 686.558594 Z M 1267.59375 672.230469 C 1267.101562 671.628906 1267.132812 670.832031 1267.660156 670.441406 C 1269.664062 668.976562 1271.671875 667.511719 1273.6875 666.0625 C 1274.21875 665.671875 1275.074219 665.832031 1275.589844 666.417969 C 1278.8125 670.042969 1282.042969 673.664062 1285.269531 677.292969 C 1285.789062 677.875 1285.746094 678.691406 1285.175781 679.097656 C 1283.015625 680.660156 1280.859375 682.226562 1278.710938 683.804688 C 1278.148438 684.222656 1277.285156 684.0625 1276.792969 683.460938 C 1273.726562 679.71875 1270.660156 675.972656 1267.59375 672.230469 Z M 1286.953125 658.339844 C 1286.398438 657.78125 1286.390625 657.023438 1286.929688 656.648438 C 1288.972656 655.214844 1291.019531 653.78125 1293.070312 652.355469 C 1293.609375 651.980469 1294.515625 652.109375 1295.101562 652.644531 C 1298.726562 655.992188 1302.347656 659.335938 1305.96875 662.683594 C 1306.554688 663.222656 1306.554688 663.992188 1305.976562 664.394531 C 1303.773438 665.925781 1301.578125 667.460938 1299.386719 668.996094 C 1298.808594 669.402344 1297.886719 669.28125 1297.328125 668.722656 C 1293.871094 665.265625 1290.414062 661.800781 1286.953125 658.339844 Z M 1306.621094 644.679688 C 1306 644.164062 1305.9375 643.460938 1306.480469 643.082031 C 1308.542969 641.660156 1310.609375 640.238281 1312.667969 638.816406 C 1313.203125 638.449219 1314.167969 638.542969 1314.816406 639.03125 C 1318.835938 642.105469 1322.859375 645.175781 1326.878906 648.246094 C 1327.527344 648.742188 1327.582031 649.472656 1327.003906 649.867188 C 1324.792969 651.390625 1322.578125 652.921875 1320.363281 654.441406 C 1319.785156 654.84375 1318.808594 654.75 1318.191406 654.234375 C 1314.335938 651.050781 1310.480469 647.867188 1306.621094 644.679688 Z M 1369.796875 626.734375 C 1372.34375 624.882812 1377.171875 624.820312 1380.582031 626.601562 C 1405.914062 639.945312 1431.25 653.289062 1456.582031 666.628906 C 1459.996094 668.414062 1459.980469 671.90625 1456.53125 674.410156 C 1420 700.898438 1381.683594 725.984375 1345.148438 752.476562 C 1341.699219 754.972656 1337.152344 754.867188 1334.976562 752.210938 C 1318.695312 732.5 1302.410156 712.789062 1286.125 693.078125 C 1283.953125 690.425781 1284.242188 686.757812 1286.792969 684.910156 C 1314.015625 665.164062 1342.570312 646.476562 1369.796875 626.734375 Z M 1326.335938 631.066406 C 1325.644531 630.597656 1325.539062 629.917969 1326.074219 629.542969 C 1328.128906 628.117188 1330.175781 626.6875 1332.222656 625.246094 C 1332.761719 624.875 1333.761719 624.929688 1334.476562 625.378906 C 1338.894531 628.175781 1343.316406 630.96875 1347.734375 633.761719 C 1348.445312 634.214844 1348.5625 634.910156 1347.984375 635.308594 C 1345.789062 636.847656 1343.589844 638.382812 1341.386719 639.917969 C 1340.8125 640.316406 1339.785156 640.265625 1339.097656 639.792969 C 1334.84375 636.882812 1330.589844 633.972656 1326.335938 631.066406 Z M 1364.917969 603.171875 C 1364.109375 602.796875 1363.882812 602.167969 1364.394531 601.773438 C 1366.351562 600.269531 1368.296875 598.761719 1370.226562 597.238281 C 1370.730469 596.832031 1371.816406 596.796875 1372.65625 597.152344 C 1377.847656 599.378906 1383.039062 601.601562 1388.230469 603.820312 C 1389.070312 604.183594 1389.304688 604.824219 1388.757812 605.253906 C 1386.6875 606.886719 1384.601562 608.511719 1382.503906 610.125 C 1381.949219 610.550781 1380.835938 610.585938 1380.027344 610.207031 C 1374.992188 607.863281 1369.953125 605.515625 1364.917969 603.171875 Z M 1383.304688 588.492188 C 1382.433594 588.164062 1382.132812 587.570312 1382.625 587.15625 C 1384.496094 585.582031 1386.347656 583.996094 1388.1875 582.394531 C 1388.664062 581.980469 1389.78125 581.882812 1390.671875 582.195312 C 1396.230469 584.113281 1401.785156 586.035156 1407.34375 587.957031 C 1408.238281 588.265625 1408.546875 588.886719 1408.03125 589.332031 C 1406.058594 591.046875 1404.066406 592.75 1402.0625 594.4375 C 1401.53125 594.882812 1400.398438 594.960938 1399.527344 594.636719 C 1394.117188 592.589844 1388.710938 590.542969 1383.304688 588.492188 Z M 1400.738281 573.074219 C 1399.816406 572.792969 1399.449219 572.214844 1399.902344 571.78125 C 1401.664062 570.121094 1403.402344 568.441406 1405.117188 566.746094 C 1405.570312 566.300781 1406.695312 566.148438 1407.644531 566.40625 C 1413.546875 568.007812 1419.445312 569.609375 1425.347656 571.207031 C 1426.296875 571.460938 1426.679688 572.0625 1426.199219 572.535156 C 1424.355469 574.355469 1422.488281 576.160156 1420.601562 577.945312 C 1420.113281 578.40625 1418.953125 578.558594 1418.023438 578.28125 C 1412.261719 576.546875 1406.5 574.808594 1400.738281 573.074219 Z M 1416.988281 556.707031 C 1416.007812 556.480469 1415.574219 555.917969 1415.996094 555.453125 C 1417.613281 553.683594 1419.207031 551.894531 1420.777344 550.082031 C 1421.1875 549.609375 1422.328125 549.375 1423.328125 549.578125 C 1429.546875 550.84375 1435.765625 552.097656 1441.984375 553.363281 C 1442.988281 553.566406 1443.441406 554.148438 1442.996094 554.664062 C 1441.316406 556.605469 1439.605469 558.523438 1437.867188 560.425781 C 1437.410156 560.925781 1436.234375 561.144531 1435.253906 560.917969 C 1429.164062 559.515625 1423.074219 558.109375 1416.988281 556.707031 Z M 1431.792969 539.199219 C 1430.765625 539.03125 1430.253906 538.488281 1430.636719 537.988281 C 1432.089844 536.085938 1433.519531 534.164062 1434.914062 532.210938 C 1435.28125 531.703125 1436.421875 531.394531 1437.46875 531.542969 C 1443.972656 532.433594 1450.480469 533.332031 1456.980469 534.226562 C 1458.027344 534.367188 1458.566406 534.933594 1458.164062 535.492188 C 1456.667969 537.574219 1455.140625 539.640625 1453.578125 541.683594 C 1453.171875 542.21875 1451.996094 542.515625 1450.964844 542.347656 C 1444.570312 541.296875 1438.183594 540.25 1431.792969 539.199219 Z M 1444.921875 520.347656 C 1443.851562 520.234375 1443.261719 519.714844 1443.59375 519.179688 C 1444.855469 517.125 1446.089844 515.042969 1447.289062 512.933594 C 1447.601562 512.386719 1448.730469 512 1449.816406 512.078125 C 1456.570312 512.578125 1463.328125 513.082031 1470.082031 513.582031 C 1471.167969 513.664062 1471.78125 514.214844 1471.445312 514.804688 C 1470.15625 517.066406 1468.839844 519.296875 1467.480469 521.5 C 1467.125 522.082031 1465.957031 522.460938 1464.890625 522.351562 C 1458.230469 521.679688 1451.578125 521.019531 1444.921875 520.347656 Z M 1456.109375 499.960938 C 1455 499.921875 1454.34375 499.414062 1454.613281 498.835938 C 1455.664062 496.605469 1456.675781 494.347656 1457.648438 492.0625 C 1457.902344 491.46875 1459.011719 490.988281 1460.128906 491 C 1467.09375 491.074219 1474.058594 491.148438 1481.019531 491.222656 C 1482.140625 491.234375 1482.835938 491.765625 1482.558594 492.410156 C 1481.515625 494.863281 1480.425781 497.285156 1479.304688 499.671875 C 1479.011719 500.296875 1477.863281 500.777344 1476.757812 500.730469 C 1469.871094 500.472656 1462.992188 500.21875 1456.109375 499.960938 Z M 1465.117188 477.84375 C 1463.976562 477.878906 1463.242188 477.386719 1463.457031 476.75 C 1464.261719 474.328125 1465.023438 471.878906 1465.75 469.402344 C 1465.941406 468.742188 1467.011719 468.160156 1468.15625 468.097656 C 1475.285156 467.707031 1482.414062 467.316406 1489.539062 466.929688 C 1490.683594 466.871094 1491.453125 467.394531 1491.246094 468.09375 C 1490.472656 470.753906 1489.652344 473.382812 1488.789062 475.976562 C 1488.558594 476.664062 1487.453125 477.238281 1486.3125 477.269531 C 1479.246094 477.460938 1472.183594 477.65625 1465.117188 477.84375 Z M 1471.691406 453.800781 C 1470.53125 453.90625 1469.726562 453.433594 1469.867188 452.742188 C 1470.40625 450.109375 1470.894531 447.445312 1471.34375 444.742188 C 1471.457031 444.035156 1472.484375 443.335938 1473.652344 443.191406 C 1480.886719 442.296875 1488.128906 441.40625 1495.363281 440.515625 C 1496.527344 440.371094 1497.378906 440.871094 1497.253906 441.640625 C 1496.773438 444.539062 1496.242188 447.398438 1495.667969 450.21875 C 1495.511719 450.960938 1494.445312 451.652344 1493.28125 451.765625 C 1486.085938 452.4375 1478.890625 453.121094 1471.691406 453.800781 Z M 1145.757812 837.699219 C 1151.992188 911.460938 1158.226562 985.230469 1164.464844 1058.992188 C 1204.539062 735.292969 1643.839844 728.683594 1683.914062 404.980469 C 1610.652344 415.605469 1537.394531 426.230469 1464.132812 436.855469 C 1439.570312 635.246094 1170.320312 639.300781 1145.757812 837.699219 " fill-opacity="1" fill-rule="nonzero"/></g></g></g></svg>